<?xml version="1.0" encoding="utf-8" standalone="no"?>
<!DOCTYPE svg PUBLIC "-//W3C//DTD SVG 1.1//EN"
  "http://www.w3.org/Graphics/SVG/1.1/DTD/svg11.dtd">
<svg xmlns:xlink="http://www.w3.org/1999/xlink" width="576pt" height="432pt" viewBox="0 0 576 432" xmlns="http://www.w3.org/2000/svg" version="1.1">
 <metadata>
  <rdf:RDF xmlns:dc="http://purl.org/dc/elements/1.1/" xmlns:cc="http://creativecommons.org/ns#" xmlns:rdf="http://www.w3.org/1999/02/22-rdf-syntax-ns#">
   <cc:Work>
    <dc:type rdf:resource="http://purl.org/dc/dcmitype/StillImage"/>
    <dc:date>2024-03-28T10:58:21.409305</dc:date>
    <dc:format>image/svg+xml</dc:format>
    <dc:creator>
     <cc:Agent>
      <dc:title>Matplotlib v3.8.3, https://matplotlib.org/</dc:title>
     </cc:Agent>
    </dc:creator>
   </cc:Work>
  </rdf:RDF>
 </metadata>
 <defs>
  <style type="text/css">*{stroke-linejoin: round; stroke-linecap: butt}</style>
 </defs>
 <g id="figure_1">
  <g id="patch_1">
   <path d="M 0 432 
L 576 432 
L 576 0 
L 0 0 
z
" style="fill: #ffffff"/>
  </g>
  <g id="axes_1">
   <g id="patch_2">
    <path d="M 72 384.48 
L 518.4 384.48 
L 518.4 51.84 
L 72 51.84 
z
" style="fill: #ffffff"/>
   </g>
   <g id="matplotlib.axis_1">
    <g id="xtick_1">
     <g id="line2d_1">
      <defs>
       <path id="m9b0747b330" d="M 0 0 
L 0 3.5 
" style="stroke: #000000; stroke-width: 0.8"/>
      </defs>
      <g>
       <use xlink:href="#m9b0747b330" x="92.290909" y="384.48" style="stroke: #000000; stroke-width: 0.8"/>
      </g>
     </g>
     <g id="text_1">
      <!-- 0 -->
      <g transform="translate(89.109659 399.078438) scale(0.1 -0.1)">
       <defs>
        <path id="DejaVuSans-30" d="M 2034 4250 
Q 1547 4250 1301 3770 
Q 1056 3291 1056 2328 
Q 1056 1369 1301 889 
Q 1547 409 2034 409 
Q 2525 409 2770 889 
Q 3016 1369 3016 2328 
Q 3016 3291 2770 3770 
Q 2525 4250 2034 4250 
z
M 2034 4750 
Q 2819 4750 3233 4129 
Q 3647 3509 3647 2328 
Q 3647 1150 3233 529 
Q 2819 -91 2034 -91 
Q 1250 -91 836 529 
Q 422 1150 422 2328 
Q 422 3509 836 4129 
Q 1250 4750 2034 4750 
z
" transform="scale(0.015625)"/>
       </defs>
       <use xlink:href="#DejaVuSans-30"/>
      </g>
     </g>
    </g>
    <g id="xtick_2">
     <g id="line2d_2">
      <g>
       <use xlink:href="#m9b0747b330" x="173.454545" y="384.48" style="stroke: #000000; stroke-width: 0.8"/>
      </g>
     </g>
     <g id="text_2">
      <!-- 20 -->
      <g transform="translate(167.092045 399.078438) scale(0.1 -0.1)">
       <defs>
        <path id="DejaVuSans-32" d="M 1228 531 
L 3431 531 
L 3431 0 
L 469 0 
L 469 531 
Q 828 903 1448 1529 
Q 2069 2156 2228 2338 
Q 2531 2678 2651 2914 
Q 2772 3150 2772 3378 
Q 2772 3750 2511 3984 
Q 2250 4219 1831 4219 
Q 1534 4219 1204 4116 
Q 875 4013 500 3803 
L 500 4441 
Q 881 4594 1212 4672 
Q 1544 4750 1819 4750 
Q 2544 4750 2975 4387 
Q 3406 4025 3406 3419 
Q 3406 3131 3298 2873 
Q 3191 2616 2906 2266 
Q 2828 2175 2409 1742 
Q 1991 1309 1228 531 
z
" transform="scale(0.015625)"/>
       </defs>
       <use xlink:href="#DejaVuSans-32"/>
       <use xlink:href="#DejaVuSans-30" x="63.623047"/>
      </g>
     </g>
    </g>
    <g id="xtick_3">
     <g id="line2d_3">
      <g>
       <use xlink:href="#m9b0747b330" x="254.618182" y="384.48" style="stroke: #000000; stroke-width: 0.8"/>
      </g>
     </g>
     <g id="text_3">
      <!-- 40 -->
      <g transform="translate(248.255682 399.078438) scale(0.1 -0.1)">
       <defs>
        <path id="DejaVuSans-34" d="M 2419 4116 
L 825 1625 
L 2419 1625 
L 2419 4116 
z
M 2253 4666 
L 3047 4666 
L 3047 1625 
L 3713 1625 
L 3713 1100 
L 3047 1100 
L 3047 0 
L 2419 0 
L 2419 1100 
L 313 1100 
L 313 1709 
L 2253 4666 
z
" transform="scale(0.015625)"/>
       </defs>
       <use xlink:href="#DejaVuSans-34"/>
       <use xlink:href="#DejaVuSans-30" x="63.623047"/>
      </g>
     </g>
    </g>
    <g id="xtick_4">
     <g id="line2d_4">
      <g>
       <use xlink:href="#m9b0747b330" x="335.781818" y="384.48" style="stroke: #000000; stroke-width: 0.8"/>
      </g>
     </g>
     <g id="text_4">
      <!-- 60 -->
      <g transform="translate(329.419318 399.078438) scale(0.1 -0.1)">
       <defs>
        <path id="DejaVuSans-36" d="M 2113 2584 
Q 1688 2584 1439 2293 
Q 1191 2003 1191 1497 
Q 1191 994 1439 701 
Q 1688 409 2113 409 
Q 2538 409 2786 701 
Q 3034 994 3034 1497 
Q 3034 2003 2786 2293 
Q 2538 2584 2113 2584 
z
M 3366 4563 
L 3366 3988 
Q 3128 4100 2886 4159 
Q 2644 4219 2406 4219 
Q 1781 4219 1451 3797 
Q 1122 3375 1075 2522 
Q 1259 2794 1537 2939 
Q 1816 3084 2150 3084 
Q 2853 3084 3261 2657 
Q 3669 2231 3669 1497 
Q 3669 778 3244 343 
Q 2819 -91 2113 -91 
Q 1303 -91 875 529 
Q 447 1150 447 2328 
Q 447 3434 972 4092 
Q 1497 4750 2381 4750 
Q 2619 4750 2861 4703 
Q 3103 4656 3366 4563 
z
" transform="scale(0.015625)"/>
       </defs>
       <use xlink:href="#DejaVuSans-36"/>
       <use xlink:href="#DejaVuSans-30" x="63.623047"/>
      </g>
     </g>
    </g>
    <g id="xtick_5">
     <g id="line2d_5">
      <g>
       <use xlink:href="#m9b0747b330" x="416.945455" y="384.48" style="stroke: #000000; stroke-width: 0.8"/>
      </g>
     </g>
     <g id="text_5">
      <!-- 80 -->
      <g transform="translate(410.582955 399.078438) scale(0.1 -0.1)">
       <defs>
        <path id="DejaVuSans-38" d="M 2034 2216 
Q 1584 2216 1326 1975 
Q 1069 1734 1069 1313 
Q 1069 891 1326 650 
Q 1584 409 2034 409 
Q 2484 409 2743 651 
Q 3003 894 3003 1313 
Q 3003 1734 2745 1975 
Q 2488 2216 2034 2216 
z
M 1403 2484 
Q 997 2584 770 2862 
Q 544 3141 544 3541 
Q 544 4100 942 4425 
Q 1341 4750 2034 4750 
Q 2731 4750 3128 4425 
Q 3525 4100 3525 3541 
Q 3525 3141 3298 2862 
Q 3072 2584 2669 2484 
Q 3125 2378 3379 2068 
Q 3634 1759 3634 1313 
Q 3634 634 3220 271 
Q 2806 -91 2034 -91 
Q 1263 -91 848 271 
Q 434 634 434 1313 
Q 434 1759 690 2068 
Q 947 2378 1403 2484 
z
M 1172 3481 
Q 1172 3119 1398 2916 
Q 1625 2713 2034 2713 
Q 2441 2713 2670 2916 
Q 2900 3119 2900 3481 
Q 2900 3844 2670 4047 
Q 2441 4250 2034 4250 
Q 1625 4250 1398 4047 
Q 1172 3844 1172 3481 
z
" transform="scale(0.015625)"/>
       </defs>
       <use xlink:href="#DejaVuSans-38"/>
       <use xlink:href="#DejaVuSans-30" x="63.623047"/>
      </g>
     </g>
    </g>
    <g id="xtick_6">
     <g id="line2d_6">
      <g>
       <use xlink:href="#m9b0747b330" x="498.109091" y="384.48" style="stroke: #000000; stroke-width: 0.8"/>
      </g>
     </g>
     <g id="text_6">
      <!-- 100 -->
      <g transform="translate(488.565341 399.078438) scale(0.1 -0.1)">
       <defs>
        <path id="DejaVuSans-31" d="M 794 531 
L 1825 531 
L 1825 4091 
L 703 3866 
L 703 4441 
L 1819 4666 
L 2450 4666 
L 2450 531 
L 3481 531 
L 3481 0 
L 794 0 
L 794 531 
z
" transform="scale(0.015625)"/>
       </defs>
       <use xlink:href="#DejaVuSans-31"/>
       <use xlink:href="#DejaVuSans-30" x="63.623047"/>
       <use xlink:href="#DejaVuSans-30" x="127.246094"/>
      </g>
     </g>
    </g>
    <g id="text_7">
     <!-- $x$ (cm) -->
     <g transform="translate(272.66 415.795938) scale(0.14 -0.14)">
      <defs>
       <path id="DejaVuSans-Oblique-78" d="M 3841 3500 
L 2234 1784 
L 3219 0 
L 2559 0 
L 1819 1388 
L 531 0 
L -166 0 
L 1556 1844 
L 641 3500 
L 1300 3500 
L 1972 2234 
L 3144 3500 
L 3841 3500 
z
" transform="scale(0.015625)"/>
       <path id="DejaVuSans-20" transform="scale(0.015625)"/>
       <path id="DejaVuSans-28" d="M 1984 4856 
Q 1566 4138 1362 3434 
Q 1159 2731 1159 2009 
Q 1159 1288 1364 580 
Q 1569 -128 1984 -844 
L 1484 -844 
Q 1016 -109 783 600 
Q 550 1309 550 2009 
Q 550 2706 781 3412 
Q 1013 4119 1484 4856 
L 1984 4856 
z
" transform="scale(0.015625)"/>
       <path id="DejaVuSans-63" d="M 3122 3366 
L 3122 2828 
Q 2878 2963 2633 3030 
Q 2388 3097 2138 3097 
Q 1578 3097 1268 2742 
Q 959 2388 959 1747 
Q 959 1106 1268 751 
Q 1578 397 2138 397 
Q 2388 397 2633 464 
Q 2878 531 3122 666 
L 3122 134 
Q 2881 22 2623 -34 
Q 2366 -91 2075 -91 
Q 1284 -91 818 406 
Q 353 903 353 1747 
Q 353 2603 823 3093 
Q 1294 3584 2113 3584 
Q 2378 3584 2631 3529 
Q 2884 3475 3122 3366 
z
" transform="scale(0.015625)"/>
       <path id="DejaVuSans-6d" d="M 3328 2828 
Q 3544 3216 3844 3400 
Q 4144 3584 4550 3584 
Q 5097 3584 5394 3201 
Q 5691 2819 5691 2113 
L 5691 0 
L 5113 0 
L 5113 2094 
Q 5113 2597 4934 2840 
Q 4756 3084 4391 3084 
Q 3944 3084 3684 2787 
Q 3425 2491 3425 1978 
L 3425 0 
L 2847 0 
L 2847 2094 
Q 2847 2600 2669 2842 
Q 2491 3084 2119 3084 
Q 1678 3084 1418 2786 
Q 1159 2488 1159 1978 
L 1159 0 
L 581 0 
L 581 3500 
L 1159 3500 
L 1159 2956 
Q 1356 3278 1631 3431 
Q 1906 3584 2284 3584 
Q 2666 3584 2933 3390 
Q 3200 3197 3328 2828 
z
" transform="scale(0.015625)"/>
       <path id="DejaVuSans-29" d="M 513 4856 
L 1013 4856 
Q 1481 4119 1714 3412 
Q 1947 2706 1947 2009 
Q 1947 1309 1714 600 
Q 1481 -109 1013 -844 
L 513 -844 
Q 928 -128 1133 580 
Q 1338 1288 1338 2009 
Q 1338 2731 1133 3434 
Q 928 4138 513 4856 
z
" transform="scale(0.015625)"/>
      </defs>
      <use xlink:href="#DejaVuSans-Oblique-78" transform="translate(0 0.125)"/>
      <use xlink:href="#DejaVuSans-20" transform="translate(59.179688 0.125)"/>
      <use xlink:href="#DejaVuSans-28" transform="translate(90.966797 0.125)"/>
      <use xlink:href="#DejaVuSans-63" transform="translate(129.980469 0.125)"/>
      <use xlink:href="#DejaVuSans-6d" transform="translate(184.960938 0.125)"/>
      <use xlink:href="#DejaVuSans-29" transform="translate(282.373047 0.125)"/>
     </g>
    </g>
   </g>
   <g id="matplotlib.axis_2">
    <g id="ytick_1">
     <g id="line2d_7">
      <defs>
       <path id="me8f6f71f5e" d="M 0 0 
L -3.5 0 
" style="stroke: #000000; stroke-width: 0.8"/>
      </defs>
      <g>
       <use xlink:href="#me8f6f71f5e" x="72" y="369.36" style="stroke: #000000; stroke-width: 0.8"/>
      </g>
     </g>
     <g id="text_8">
      <!-- 0 -->
      <g transform="translate(58.6375 373.159219) scale(0.1 -0.1)">
       <use xlink:href="#DejaVuSans-30"/>
      </g>
     </g>
    </g>
    <g id="ytick_2">
     <g id="line2d_8">
      <g>
       <use xlink:href="#me8f6f71f5e" x="72" y="308.88" style="stroke: #000000; stroke-width: 0.8"/>
      </g>
     </g>
     <g id="text_9">
      <!-- 100 -->
      <g transform="translate(45.9125 312.679219) scale(0.1 -0.1)">
       <use xlink:href="#DejaVuSans-31"/>
       <use xlink:href="#DejaVuSans-30" x="63.623047"/>
       <use xlink:href="#DejaVuSans-30" x="127.246094"/>
      </g>
     </g>
    </g>
    <g id="ytick_3">
     <g id="line2d_9">
      <g>
       <use xlink:href="#me8f6f71f5e" x="72" y="248.4" style="stroke: #000000; stroke-width: 0.8"/>
      </g>
     </g>
     <g id="text_10">
      <!-- 200 -->
      <g transform="translate(45.9125 252.199219) scale(0.1 -0.1)">
       <use xlink:href="#DejaVuSans-32"/>
       <use xlink:href="#DejaVuSans-30" x="63.623047"/>
       <use xlink:href="#DejaVuSans-30" x="127.246094"/>
      </g>
     </g>
    </g>
    <g id="ytick_4">
     <g id="line2d_10">
      <g>
       <use xlink:href="#me8f6f71f5e" x="72" y="187.92" style="stroke: #000000; stroke-width: 0.8"/>
      </g>
     </g>
     <g id="text_11">
      <!-- 300 -->
      <g transform="translate(45.9125 191.719219) scale(0.1 -0.1)">
       <defs>
        <path id="DejaVuSans-33" d="M 2597 2516 
Q 3050 2419 3304 2112 
Q 3559 1806 3559 1356 
Q 3559 666 3084 287 
Q 2609 -91 1734 -91 
Q 1441 -91 1130 -33 
Q 819 25 488 141 
L 488 750 
Q 750 597 1062 519 
Q 1375 441 1716 441 
Q 2309 441 2620 675 
Q 2931 909 2931 1356 
Q 2931 1769 2642 2001 
Q 2353 2234 1838 2234 
L 1294 2234 
L 1294 2753 
L 1863 2753 
Q 2328 2753 2575 2939 
Q 2822 3125 2822 3475 
Q 2822 3834 2567 4026 
Q 2313 4219 1838 4219 
Q 1578 4219 1281 4162 
Q 984 4106 628 3988 
L 628 4550 
Q 988 4650 1302 4700 
Q 1616 4750 1894 4750 
Q 2613 4750 3031 4423 
Q 3450 4097 3450 3541 
Q 3450 3153 3228 2886 
Q 3006 2619 2597 2516 
z
" transform="scale(0.015625)"/>
       </defs>
       <use xlink:href="#DejaVuSans-33"/>
       <use xlink:href="#DejaVuSans-30" x="63.623047"/>
       <use xlink:href="#DejaVuSans-30" x="127.246094"/>
      </g>
     </g>
    </g>
    <g id="ytick_5">
     <g id="line2d_11">
      <g>
       <use xlink:href="#me8f6f71f5e" x="72" y="127.44" style="stroke: #000000; stroke-width: 0.8"/>
      </g>
     </g>
     <g id="text_12">
      <!-- 400 -->
      <g transform="translate(45.9125 131.239219) scale(0.1 -0.1)">
       <use xlink:href="#DejaVuSans-34"/>
       <use xlink:href="#DejaVuSans-30" x="63.623047"/>
       <use xlink:href="#DejaVuSans-30" x="127.246094"/>
      </g>
     </g>
    </g>
    <g id="ytick_6">
     <g id="line2d_12">
      <g>
       <use xlink:href="#me8f6f71f5e" x="72" y="66.96" style="stroke: #000000; stroke-width: 0.8"/>
      </g>
     </g>
     <g id="text_13">
      <!-- 500 -->
      <g transform="translate(45.9125 70.759219) scale(0.1 -0.1)">
       <defs>
        <path id="DejaVuSans-35" d="M 691 4666 
L 3169 4666 
L 3169 4134 
L 1269 4134 
L 1269 2991 
Q 1406 3038 1543 3061 
Q 1681 3084 1819 3084 
Q 2600 3084 3056 2656 
Q 3513 2228 3513 1497 
Q 3513 744 3044 326 
Q 2575 -91 1722 -91 
Q 1428 -91 1123 -41 
Q 819 9 494 109 
L 494 744 
Q 775 591 1075 516 
Q 1375 441 1709 441 
Q 2250 441 2565 725 
Q 2881 1009 2881 1497 
Q 2881 1984 2565 2268 
Q 2250 2553 1709 2553 
Q 1456 2553 1204 2497 
Q 953 2441 691 2322 
L 691 4666 
z
" transform="scale(0.015625)"/>
       </defs>
       <use xlink:href="#DejaVuSans-35"/>
       <use xlink:href="#DejaVuSans-30" x="63.623047"/>
       <use xlink:href="#DejaVuSans-30" x="127.246094"/>
      </g>
     </g>
    </g>
    <g id="text_14">
     <!-- $T$ ($^{\circ} C$) -->
     <g transform="translate(39.000937 238.39) rotate(-90) scale(0.14 -0.14)">
      <defs>
       <path id="DejaVuSans-Oblique-54" d="M 378 4666 
L 4325 4666 
L 4225 4134 
L 2559 4134 
L 1759 0 
L 1125 0 
L 1925 4134 
L 275 4134 
L 378 4666 
z
" transform="scale(0.015625)"/>
       <path id="DejaVuSans-2218" d="M 2000 2619 
Q 1750 2619 1578 2445 
Q 1406 2272 1406 2022 
Q 1406 1775 1578 1605 
Q 1750 1435 2000 1435 
Q 2250 1435 2422 1605 
Q 2594 1775 2594 2022 
Q 2594 2269 2420 2444 
Q 2247 2619 2000 2619 
z
M 2000 3022 
Q 2200 3022 2384 2945 
Q 2569 2869 2703 2725 
Q 2847 2585 2919 2406 
Q 2991 2228 2991 2022 
Q 2991 1610 2702 1324 
Q 2413 1038 1994 1038 
Q 1572 1038 1290 1319 
Q 1009 1600 1009 2022 
Q 1009 2441 1296 2731 
Q 1584 3022 2000 3022 
z
" transform="scale(0.015625)"/>
       <path id="DejaVuSans-Oblique-43" d="M 4447 4306 
L 4319 3641 
Q 4019 3944 3683 4091 
Q 3347 4238 2956 4238 
Q 2422 4238 2017 3981 
Q 1613 3725 1319 3200 
Q 1131 2863 1032 2486 
Q 934 2109 934 1728 
Q 934 1091 1264 756 
Q 1594 422 2222 422 
Q 2656 422 3056 561 
Q 3456 700 3834 978 
L 3688 231 
Q 3316 72 2936 -9 
Q 2556 -91 2175 -91 
Q 1278 -91 773 396 
Q 269 884 269 1753 
Q 269 2309 461 2846 
Q 653 3384 1013 3828 
Q 1394 4300 1883 4525 
Q 2372 4750 3022 4750 
Q 3422 4750 3780 4639 
Q 4138 4528 4447 4306 
z
" transform="scale(0.015625)"/>
      </defs>
      <use xlink:href="#DejaVuSans-Oblique-54" transform="translate(0 0.125)"/>
      <use xlink:href="#DejaVuSans-20" transform="translate(61.083984 0.125)"/>
      <use xlink:href="#DejaVuSans-28" transform="translate(92.871094 0.125)"/>
      <use xlink:href="#DejaVuSans-2218" transform="translate(132.841797 38.40625) scale(0.7)"/>
      <use xlink:href="#DejaVuSans-Oblique-43" transform="translate(179.394531 0.125)"/>
      <use xlink:href="#DejaVuSans-29" transform="translate(249.21875 0.125)"/>
     </g>
    </g>
   </g>
   <g id="line2d_13">
    <path d="M 92.290909 369.36 
L 96.349091 351.13828 
L 100.407273 333.020338 
L 104.465455 315.108182 
L 108.523636 297.500331 
L 112.581818 280.290193 
L 116.64 263.564587 
L 120.698182 247.402448 
L 124.756364 231.87374 
L 128.814545 217.038611 
L 132.872727 202.9468 
L 136.930909 189.637298 
L 140.989091 177.138269 
L 145.047273 165.46721 
L 149.105455 154.63134 
L 153.163636 144.628192 
L 157.221818 135.446362 
L 161.28 127.066417 
L 165.338182 119.461882 
L 169.396364 112.60031 
L 173.454545 106.444374 
L 177.512727 100.952962 
L 181.570909 96.082238 
L 185.629091 91.786651 
L 189.687273 88.019866 
L 193.745455 84.735597 
L 197.803636 81.888344 
L 201.861818 79.434015 
L 205.92 77.330437 
L 209.978182 75.537753 
L 214.036364 74.018719 
L 218.094545 72.738896 
L 222.152727 71.666761 
L 226.210909 70.773734 
L 230.269091 70.03414 
L 234.327273 69.425124 
L 238.385455 68.926512 
L 242.443636 68.520647 
L 246.501818 68.19221 
L 250.56 67.928014 
L 254.618182 67.716802 
L 258.676364 67.549052 
L 262.734545 67.416777 
L 266.792727 67.313342 
L 270.850909 67.233304 
L 274.909091 67.172251 
L 278.967273 67.126679 
L 283.025455 67.093874 
L 287.083636 67.071819 
L 291.141818 67.059127 
L 295.2 67.054985 
L 299.258182 67.059127 
L 303.316364 67.071819 
L 307.374545 67.093874 
L 311.432727 67.126679 
L 315.490909 67.172251 
L 319.549091 67.233304 
L 323.607273 67.313342 
L 327.665455 67.416777 
L 331.723636 67.549052 
L 335.781818 67.716802 
L 339.84 67.928014 
L 343.898182 68.19221 
L 347.956364 68.520647 
L 352.014545 68.926512 
L 356.072727 69.425124 
L 360.130909 70.03414 
L 364.189091 70.773734 
L 368.247273 71.666761 
L 372.305455 72.738896 
L 376.363636 74.018719 
L 380.421818 75.537753 
L 384.48 77.330437 
L 388.538182 79.434015 
L 392.596364 81.888344 
L 396.654545 84.735597 
L 400.712727 88.019866 
L 404.770909 91.786651 
L 408.829091 96.082238 
L 412.887273 100.952962 
L 416.945455 106.444374 
L 421.003636 112.60031 
L 425.061818 119.461882 
L 429.12 127.066417 
L 433.178182 135.446362 
L 437.236364 144.628192 
L 441.294545 154.63134 
L 445.352727 165.46721 
L 449.410909 177.138269 
L 453.469091 189.637298 
L 457.527273 202.9468 
L 461.585455 217.038611 
L 465.643636 231.87374 
L 469.701818 247.402448 
L 473.76 263.564587 
L 477.818182 280.290193 
L 481.876364 297.500331 
L 485.934545 315.108182 
L 489.992727 333.020338 
L 494.050909 351.13828 
L 498.109091 369.36 
" clip-path="url(#pbc5f2b4880)" style="fill: none; stroke: #1f77b4; stroke-width: 1.5; stroke-linecap: square"/>
   </g>
   <g id="line2d_14">
    <path d="M 92.290909 369.36 
L 96.349091 356.469181 
L 100.407273 343.615133 
L 104.465455 330.834313 
L 108.523636 318.162553 
L 112.581818 305.63476 
L 116.64 293.284631 
L 120.698182 281.144376 
L 124.756364 269.244473 
L 128.814545 257.61344 
L 132.872727 246.277635 
L 136.930909 235.261087 
L 140.989091 224.585353 
L 145.047273 214.269413 
L 149.105455 204.329594 
L 153.163636 194.779523 
L 157.221818 185.63012 
L 161.28 176.889617 
L 165.338182 168.563602 
L 169.396364 160.655105 
L 173.454545 153.16469 
L 177.512727 146.090589 
L 181.570909 139.428838 
L 185.629091 133.173446 
L 189.687273 127.316567 
L 193.745455 121.848686 
L 197.803636 116.758815 
L 201.861818 112.034692 
L 205.92 107.662978 
L 209.978182 103.629461 
L 214.036364 99.919254 
L 218.094545 96.516979 
L 222.152727 93.406962 
L 226.210909 90.573397 
L 230.269091 88.000521 
L 234.327273 85.672764 
L 238.385455 83.57489 
L 242.443636 81.692132 
L 246.501818 80.010306 
L 250.56 78.515919 
L 254.618182 77.196266 
L 258.676364 76.039507 
L 262.734545 75.034743 
L 266.792727 74.172078 
L 270.850909 73.442669 
L 274.909091 72.838775 
L 278.967273 72.353786 
L 283.025455 71.982258 
L 287.083636 71.719937 
L 291.141818 71.563767 
L 295.2 71.511915 
L 299.258182 71.563767 
L 303.316364 71.719937 
L 307.374545 71.982258 
L 311.432727 72.353786 
L 315.490909 72.838775 
L 319.549091 73.442669 
L 323.607273 74.172078 
L 327.665455 75.034743 
L 331.723636 76.039507 
L 335.781818 77.196266 
L 339.84 78.515919 
L 343.898182 80.010306 
L 347.956364 81.692132 
L 352.014545 83.57489 
L 356.072727 85.672764 
L 360.130909 88.000521 
L 364.189091 90.573397 
L 368.247273 93.406962 
L 372.305455 96.516979 
L 376.363636 99.919254 
L 380.421818 103.629461 
L 384.48 107.662978 
L 388.538182 112.034692 
L 392.596364 116.758815 
L 396.654545 121.848686 
L 400.712727 127.316567 
L 404.770909 133.173446 
L 408.829091 139.428838 
L 412.887273 146.090589 
L 416.945455 153.16469 
L 421.003636 160.655105 
L 425.061818 168.563602 
L 429.12 176.889617 
L 433.178182 185.63012 
L 437.236364 194.779523 
L 441.294545 204.329594 
L 445.352727 214.269413 
L 449.410909 224.585353 
L 453.469091 235.261087 
L 457.527273 246.277635 
L 461.585455 257.61344 
L 465.643636 269.244473 
L 469.701818 281.144376 
L 473.76 293.284631 
L 477.818182 305.63476 
L 481.876364 318.162553 
L 485.934545 330.834313 
L 489.992727 343.615133 
L 494.050909 356.469181 
L 498.109091 369.36 
" clip-path="url(#pbc5f2b4880)" style="fill: none; stroke: #ff7f0e; stroke-width: 1.5; stroke-linecap: square"/>
   </g>
   <g id="line2d_15">
    <path d="M 92.290909 369.36 
L 96.349091 358.834555 
L 100.407273 348.329192 
L 104.465455 337.863882 
L 108.523636 327.458368 
L 112.581818 317.132062 
L 116.64 306.903935 
L 120.698182 296.792415 
L 124.756364 286.815291 
L 128.814545 276.989623 
L 132.872727 267.331657 
L 136.930909 257.856752 
L 140.989091 248.579311 
L 145.047273 239.512719 
L 149.105455 230.669301 
L 153.163636 222.060277 
L 157.221818 213.695736 
L 161.28 205.584612 
L 165.338182 197.73468 
L 169.396364 190.152553 
L 173.454545 182.843692 
L 177.512727 175.812426 
L 181.570909 169.06198 
L 185.629091 162.594513 
L 189.687273 156.411161 
L 193.745455 150.512089 
L 197.803636 144.896549 
L 201.861818 139.562947 
L 205.92 134.508908 
L 209.978182 129.731353 
L 214.036364 125.226576 
L 218.094545 120.990322 
L 222.152727 117.017872 
L 226.210909 113.30412 
L 230.269091 109.843666 
L 234.327273 106.63089 
L 238.385455 103.660038 
L 242.443636 100.925304 
L 246.501818 98.420905 
L 250.56 96.141158 
L 254.618182 94.08055 
L 258.676364 92.233807 
L 262.734545 90.595958 
L 266.792727 89.16239 
L 270.850909 87.928905 
L 274.909091 86.891765 
L 278.967273 86.047736 
L 283.025455 85.394122 
L 287.083636 84.928794 
L 291.141818 84.650217 
L 295.2 84.557461 
L 299.258182 84.650217 
L 303.316364 84.928794 
L 307.374545 85.394122 
L 311.432727 86.047736 
L 315.490909 86.891765 
L 319.549091 87.928905 
L 323.607273 89.16239 
L 327.665455 90.595958 
L 331.723636 92.233807 
L 335.781818 94.08055 
L 339.84 96.141158 
L 343.898182 98.420905 
L 347.956364 100.925304 
L 352.014545 103.660038 
L 356.072727 106.63089 
L 360.130909 109.843666 
L 364.189091 113.30412 
L 368.247273 117.017872 
L 372.305455 120.990322 
L 376.363636 125.226576 
L 380.421818 129.731353 
L 384.48 134.508908 
L 388.538182 139.562947 
L 392.596364 144.896549 
L 396.654545 150.512089 
L 400.712727 156.411161 
L 404.770909 162.594513 
L 408.829091 169.06198 
L 412.887273 175.812426 
L 416.945455 182.843692 
L 421.003636 190.152553 
L 425.061818 197.73468 
L 429.12 205.584612 
L 433.178182 213.695736 
L 437.236364 222.060277 
L 441.294545 230.669301 
L 445.352727 239.512719 
L 449.410909 248.579311 
L 453.469091 257.856752 
L 457.527273 267.331657 
L 461.585455 276.989623 
L 465.643636 286.815291 
L 469.701818 296.792415 
L 473.76 306.903935 
L 477.818182 317.132062 
L 481.876364 327.458368 
L 485.934545 337.863882 
L 489.992727 348.329192 
L 494.050909 358.834555 
L 498.109091 369.36 
" clip-path="url(#pbc5f2b4880)" style="fill: none; stroke: #2ca02c; stroke-width: 1.5; stroke-linecap: square"/>
   </g>
   <g id="line2d_16">
    <path d="M 92.290909 369.36 
L 96.349091 360.257096 
L 100.407273 351.167481 
L 104.465455 342.104391 
L 108.523636 333.080959 
L 112.581818 324.110161 
L 116.64 315.204773 
L 120.698182 306.377314 
L 124.756364 297.640008 
L 128.814545 289.004735 
L 132.872727 280.482994 
L 136.930909 272.085861 
L 140.989091 263.823957 
L 145.047273 255.707417 
L 149.105455 247.745863 
L 153.163636 239.948375 
L 157.221818 232.323482 
L 161.28 224.879135 
L 165.338182 217.622706 
L 169.396364 210.560974 
L 173.454545 203.700128 
L 177.512727 197.045763 
L 181.570909 190.60289 
L 185.629091 184.375945 
L 189.687273 178.3688 
L 193.745455 172.584784 
L 197.803636 167.0267 
L 201.861818 161.696849 
L 205.92 156.597059 
L 209.978182 151.728711 
L 214.036364 147.092775 
L 218.094545 142.689836 
L 222.152727 138.520136 
L 226.210909 134.583606 
L 230.269091 130.879903 
L 234.327273 127.408452 
L 238.385455 124.168477 
L 242.443636 121.159044 
L 246.501818 118.379095 
L 250.56 115.827485 
L 254.618182 113.503018 
L 258.676364 111.404479 
L 262.734545 109.530665 
L 266.792727 107.880416 
L 270.850909 106.452641 
L 274.909091 105.246343 
L 278.967273 104.260642 
L 283.025455 103.494791 
L 287.083636 102.948191 
L 291.141818 102.620408 
L 295.2 102.511176 
L 299.258182 102.620408 
L 303.316364 102.948191 
L 307.374545 103.494791 
L 311.432727 104.260642 
L 315.490909 105.246343 
L 319.549091 106.452641 
L 323.607273 107.880416 
L 327.665455 109.530665 
L 331.723636 111.404479 
L 335.781818 113.503018 
L 339.84 115.827485 
L 343.898182 118.379095 
L 347.956364 121.159044 
L 352.014545 124.168477 
L 356.072727 127.408452 
L 360.130909 130.879903 
L 364.189091 134.583606 
L 368.247273 138.520136 
L 372.305455 142.689836 
L 376.363636 147.092775 
L 380.421818 151.728711 
L 384.48 156.597059 
L 388.538182 161.696849 
L 392.596364 167.0267 
L 396.654545 172.584784 
L 400.712727 178.3688 
L 404.770909 184.375945 
L 408.829091 190.60289 
L 412.887273 197.045763 
L 416.945455 203.700128 
L 421.003636 210.560974 
L 425.061818 217.622706 
L 429.12 224.879135 
L 433.178182 232.323482 
L 437.236364 239.948375 
L 441.294545 247.745863 
L 445.352727 255.707417 
L 449.410909 263.823957 
L 453.469091 272.085861 
L 457.527273 280.482994 
L 461.585455 289.004735 
L 465.643636 297.640008 
L 469.701818 306.377314 
L 473.76 315.204773 
L 477.818182 324.110161 
L 481.876364 333.080959 
L 485.934545 342.104391 
L 489.992727 351.167481 
L 494.050909 360.257096 
L 498.109091 369.36 
" clip-path="url(#pbc5f2b4880)" style="fill: none; stroke: #d62728; stroke-width: 1.5; stroke-linecap: square"/>
   </g>
   <g id="line2d_17">
    <path d="M 92.290909 369.36 
L 96.349091 361.258708 
L 100.407273 353.167372 
L 104.465455 345.095923 
L 108.523636 337.054233 
L 112.581818 329.052098 
L 116.64 321.099202 
L 120.698182 313.205099 
L 124.756364 305.379184 
L 128.814545 297.630672 
L 132.872727 289.968572 
L 136.930909 282.401672 
L 140.989091 274.938514 
L 145.047273 267.587376 
L 149.105455 260.356262 
L 153.163636 253.252879 
L 157.221818 246.284632 
L 161.28 239.458607 
L 165.338182 232.781567 
L 169.396364 226.259942 
L 173.454545 219.899826 
L 177.512727 213.706973 
L 181.570909 207.686797 
L 185.629091 201.844372 
L 189.687273 196.184435 
L 193.745455 190.711391 
L 197.803636 185.42932 
L 201.861818 180.341983 
L 205.92 175.452831 
L 209.978182 170.765017 
L 214.036364 166.28141 
L 218.094545 162.004601 
L 222.152727 157.936922 
L 226.210909 154.080462 
L 230.269091 150.437077 
L 234.327273 147.008407 
L 238.385455 143.795893 
L 242.443636 140.800795 
L 246.501818 138.0242 
L 250.56 135.467046 
L 254.618182 133.130132 
L 258.676364 131.014134 
L 262.734545 129.119618 
L 266.792727 127.447052 
L 270.850909 125.996822 
L 274.909091 124.769238 
L 278.967273 123.764546 
L 283.025455 122.982936 
L 287.083636 122.424547 
L 291.141818 122.089477 
L 295.2 121.97778 
L 299.258182 122.089477 
L 303.316364 122.424547 
L 307.374545 122.982936 
L 311.432727 123.764546 
L 315.490909 124.769238 
L 319.549091 125.996822 
L 323.607273 127.447052 
L 327.665455 129.119618 
L 331.723636 131.014134 
L 335.781818 133.130132 
L 339.84 135.467046 
L 343.898182 138.0242 
L 347.956364 140.800795 
L 352.014545 143.795893 
L 356.072727 147.008407 
L 360.130909 150.437077 
L 364.189091 154.080462 
L 368.247273 157.936922 
L 372.305455 162.004601 
L 376.363636 166.28141 
L 380.421818 170.765017 
L 384.48 175.452831 
L 388.538182 180.341983 
L 392.596364 185.42932 
L 396.654545 190.711391 
L 400.712727 196.184435 
L 404.770909 201.844372 
L 408.829091 207.686797 
L 412.887273 213.706973 
L 416.945455 219.899826 
L 421.003636 226.259942 
L 425.061818 232.781567 
L 429.12 239.458607 
L 433.178182 246.284632 
L 437.236364 253.252879 
L 441.294545 260.356262 
L 445.352727 267.587376 
L 449.410909 274.938514 
L 453.469091 282.401672 
L 457.527273 289.968572 
L 461.585455 297.630672 
L 465.643636 305.379184 
L 469.701818 313.205099 
L 473.76 321.099202 
L 477.818182 329.052098 
L 481.876364 337.054233 
L 485.934545 345.095923 
L 489.992727 353.167372 
L 494.050909 361.258708 
L 498.109091 369.36 
" clip-path="url(#pbc5f2b4880)" style="fill: none; stroke: #9467bd; stroke-width: 1.5; stroke-linecap: square"/>
   </g>
   <g id="line2d_18">
    <path d="M 92.290909 369.36 
L 96.349091 362.0426 
L 100.407273 354.733321 
L 104.465455 347.440268 
L 108.523636 340.171515 
L 112.581818 332.935086 
L 116.64 325.738943 
L 120.698182 318.590972 
L 124.756364 311.498962 
L 128.814545 304.470597 
L 132.872727 297.51344 
L 136.930909 290.634919 
L 140.989091 283.842317 
L 145.047273 277.142758 
L 149.105455 270.543198 
L 153.163636 264.050414 
L 157.221818 257.670996 
L 161.28 251.411338 
L 165.338182 245.27763 
L 169.396364 239.275856 
L 173.454545 233.411782 
L 177.512727 227.690958 
L 181.570909 222.11871 
L 185.629091 216.700141 
L 189.687273 211.440127 
L 193.745455 206.34332 
L 197.803636 201.414142 
L 201.861818 196.656791 
L 205.92 192.075243 
L 209.978182 187.673252 
L 214.036364 183.454354 
L 218.094545 179.421869 
L 222.152727 175.57891 
L 226.210909 171.928382 
L 230.269091 168.472992 
L 234.327273 165.21525 
L 238.385455 162.157477 
L 242.443636 159.301809 
L 246.501818 156.650206 
L 250.56 154.204453 
L 254.618182 151.966169 
L 258.676364 149.936812 
L 262.734545 148.117682 
L 266.792727 146.50993 
L 270.850909 145.114558 
L 274.909091 143.932426 
L 278.967273 142.964255 
L 283.025455 142.210632 
L 287.083636 141.672008 
L 291.141818 141.348705 
L 295.2 141.240916 
L 299.258182 141.348705 
L 303.316364 141.672008 
L 307.374545 142.210632 
L 311.432727 142.964255 
L 315.490909 143.932426 
L 319.549091 145.114558 
L 323.607273 146.50993 
L 327.665455 148.117682 
L 331.723636 149.936812 
L 335.781818 151.966169 
L 339.84 154.204453 
L 343.898182 156.650206 
L 347.956364 159.301809 
L 352.014545 162.157477 
L 356.072727 165.21525 
L 360.130909 168.472992 
L 364.189091 171.928382 
L 368.247273 175.57891 
L 372.305455 179.421869 
L 376.363636 183.454354 
L 380.421818 187.673252 
L 384.48 192.075243 
L 388.538182 196.656791 
L 392.596364 201.414142 
L 396.654545 206.34332 
L 400.712727 211.440127 
L 404.770909 216.700141 
L 408.829091 222.11871 
L 412.887273 227.690958 
L 416.945455 233.411782 
L 421.003636 239.275856 
L 425.061818 245.27763 
L 429.12 251.411338 
L 433.178182 257.670996 
L 437.236364 264.050414 
L 441.294545 270.543198 
L 445.352727 277.142758 
L 449.410909 283.842317 
L 453.469091 290.634919 
L 457.527273 297.51344 
L 461.585455 304.470597 
L 465.643636 311.498962 
L 469.701818 318.590972 
L 473.76 325.738943 
L 477.818182 332.935086 
L 481.876364 340.171515 
L 485.934545 347.440268 
L 489.992727 354.733321 
L 494.050909 362.0426 
L 498.109091 369.36 
" clip-path="url(#pbc5f2b4880)" style="fill: none; stroke: #8c564b; stroke-width: 1.5; stroke-linecap: square"/>
   </g>
   <g id="line2d_19">
    <path d="M 92.290909 369.36 
L 173.454545 133.11 
L 254.618182 66.96 
L 335.781818 66.96 
L 416.945455 133.11 
L 498.109091 369.36 
" clip-path="url(#pbc5f2b4880)" style="fill: none; stroke-dasharray: 1,1.65; stroke-dashoffset: 0; stroke: #1f77b4"/>
    <defs>
     <path id="mf22e03f48b" d="M 0 3 
C 0.795609 3 1.55874 2.683901 2.12132 2.12132 
C 2.683901 1.55874 3 0.795609 3 0 
C 3 -0.795609 2.683901 -1.55874 2.12132 -2.12132 
C 1.55874 -2.683901 0.795609 -3 0 -3 
C -0.795609 -3 -1.55874 -2.683901 -2.12132 -2.12132 
C -2.683901 -1.55874 -3 -0.795609 -3 0 
C -3 0.795609 -2.683901 1.55874 -2.12132 2.12132 
C -1.55874 2.683901 -0.795609 3 0 3 
z
" style="stroke: #1f77b4"/>
    </defs>
    <g clip-path="url(#pbc5f2b4880)">
     <use xlink:href="#mf22e03f48b" x="92.290909" y="369.36" style="fill: #1f77b4; stroke: #1f77b4"/>
     <use xlink:href="#mf22e03f48b" x="173.454545" y="133.11" style="fill: #1f77b4; stroke: #1f77b4"/>
     <use xlink:href="#mf22e03f48b" x="254.618182" y="66.96" style="fill: #1f77b4; stroke: #1f77b4"/>
     <use xlink:href="#mf22e03f48b" x="335.781818" y="66.96" style="fill: #1f77b4; stroke: #1f77b4"/>
     <use xlink:href="#mf22e03f48b" x="416.945455" y="133.11" style="fill: #1f77b4; stroke: #1f77b4"/>
     <use xlink:href="#mf22e03f48b" x="498.109091" y="369.36" style="fill: #1f77b4; stroke: #1f77b4"/>
    </g>
   </g>
   <g id="line2d_20">
    <path d="M 92.290909 369.36 
L 173.454545 170.319375 
L 254.618182 81.430312 
L 335.781818 81.430312 
L 416.945455 170.319375 
L 498.109091 369.36 
" clip-path="url(#pbc5f2b4880)" style="fill: none; stroke-dasharray: 1,1.65; stroke-dashoffset: 0; stroke: #ff7f0e"/>
    <defs>
     <path id="m4480916ae7" d="M 0 3 
C 0.795609 3 1.55874 2.683901 2.12132 2.12132 
C 2.683901 1.55874 3 0.795609 3 0 
C 3 -0.795609 2.683901 -1.55874 2.12132 -2.12132 
C 1.55874 -2.683901 0.795609 -3 0 -3 
C -0.795609 -3 -1.55874 -2.683901 -2.12132 -2.12132 
C -2.683901 -1.55874 -3 -0.795609 -3 0 
C -3 0.795609 -2.683901 1.55874 -2.12132 2.12132 
C -1.55874 2.683901 -0.795609 3 0 3 
z
" style="stroke: #ff7f0e"/>
    </defs>
    <g clip-path="url(#pbc5f2b4880)">
     <use xlink:href="#m4480916ae7" x="92.290909" y="369.36" style="fill: #ff7f0e; stroke: #ff7f0e"/>
     <use xlink:href="#m4480916ae7" x="173.454545" y="170.319375" style="fill: #ff7f0e; stroke: #ff7f0e"/>
     <use xlink:href="#m4480916ae7" x="254.618182" y="81.430312" style="fill: #ff7f0e; stroke: #ff7f0e"/>
     <use xlink:href="#m4480916ae7" x="335.781818" y="81.430312" style="fill: #ff7f0e; stroke: #ff7f0e"/>
     <use xlink:href="#m4480916ae7" x="416.945455" y="170.319375" style="fill: #ff7f0e; stroke: #ff7f0e"/>
     <use xlink:href="#m4480916ae7" x="498.109091" y="369.36" style="fill: #ff7f0e; stroke: #ff7f0e"/>
    </g>
   </g>
   <g id="line2d_21">
    <path d="M 92.290909 369.36 
L 173.454545 194.415029 
L 254.618182 100.874795 
L 335.781818 100.874795 
L 416.945455 194.415029 
L 498.109091 369.36 
" clip-path="url(#pbc5f2b4880)" style="fill: none; stroke-dasharray: 1,1.65; stroke-dashoffset: 0; stroke: #2ca02c"/>
    <defs>
     <path id="me1ac6adc4a" d="M 0 3 
C 0.795609 3 1.55874 2.683901 2.12132 2.12132 
C 2.683901 1.55874 3 0.795609 3 0 
C 3 -0.795609 2.683901 -1.55874 2.12132 -2.12132 
C 1.55874 -2.683901 0.795609 -3 0 -3 
C -0.795609 -3 -1.55874 -2.683901 -2.12132 -2.12132 
C -2.683901 -1.55874 -3 -0.795609 -3 0 
C -3 0.795609 -2.683901 1.55874 -2.12132 2.12132 
C -1.55874 2.683901 -0.795609 3 0 3 
z
" style="stroke: #2ca02c"/>
    </defs>
    <g clip-path="url(#pbc5f2b4880)">
     <use xlink:href="#me1ac6adc4a" x="92.290909" y="369.36" style="fill: #2ca02c; stroke: #2ca02c"/>
     <use xlink:href="#me1ac6adc4a" x="173.454545" y="194.415029" style="fill: #2ca02c; stroke: #2ca02c"/>
     <use xlink:href="#me1ac6adc4a" x="254.618182" y="100.874795" style="fill: #2ca02c; stroke: #2ca02c"/>
     <use xlink:href="#me1ac6adc4a" x="335.781818" y="100.874795" style="fill: #2ca02c; stroke: #2ca02c"/>
     <use xlink:href="#me1ac6adc4a" x="416.945455" y="194.415029" style="fill: #2ca02c; stroke: #2ca02c"/>
     <use xlink:href="#me1ac6adc4a" x="498.109091" y="369.36" style="fill: #2ca02c; stroke: #2ca02c"/>
    </g>
   </g>
   <g id="line2d_22">
    <path d="M 92.290909 369.36 
L 173.454545 212.222315 
L 254.618182 121.336721 
L 335.781818 121.336721 
L 416.945455 212.222315 
L 498.109091 369.36 
" clip-path="url(#pbc5f2b4880)" style="fill: none; stroke-dasharray: 1,1.65; stroke-dashoffset: 0; stroke: #d62728"/>
    <defs>
     <path id="m7ca60ec1c2" d="M 0 3 
C 0.795609 3 1.55874 2.683901 2.12132 2.12132 
C 2.683901 1.55874 3 0.795609 3 0 
C 3 -0.795609 2.683901 -1.55874 2.12132 -2.12132 
C 1.55874 -2.683901 0.795609 -3 0 -3 
C -0.795609 -3 -1.55874 -2.683901 -2.12132 -2.12132 
C -2.683901 -1.55874 -3 -0.795609 -3 0 
C -3 0.795609 -2.683901 1.55874 -2.12132 2.12132 
C -1.55874 2.683901 -0.795609 3 0 3 
z
" style="stroke: #d62728"/>
    </defs>
    <g clip-path="url(#pbc5f2b4880)">
     <use xlink:href="#m7ca60ec1c2" x="92.290909" y="369.36" style="fill: #d62728; stroke: #d62728"/>
     <use xlink:href="#m7ca60ec1c2" x="173.454545" y="212.222315" style="fill: #d62728; stroke: #d62728"/>
     <use xlink:href="#m7ca60ec1c2" x="254.618182" y="121.336721" style="fill: #d62728; stroke: #d62728"/>
     <use xlink:href="#m7ca60ec1c2" x="335.781818" y="121.336721" style="fill: #d62728; stroke: #d62728"/>
     <use xlink:href="#m7ca60ec1c2" x="416.945455" y="212.222315" style="fill: #d62728; stroke: #d62728"/>
     <use xlink:href="#m7ca60ec1c2" x="498.109091" y="369.36" style="fill: #d62728; stroke: #d62728"/>
    </g>
   </g>
   <g id="line2d_23">
    <path d="M 92.290909 369.36 
L 173.454545 226.71496 
L 254.618182 141.217945 
L 335.781818 141.217945 
L 416.945455 226.71496 
L 498.109091 369.36 
" clip-path="url(#pbc5f2b4880)" style="fill: none; stroke-dasharray: 1,1.65; stroke-dashoffset: 0; stroke: #9467bd"/>
    <defs>
     <path id="mc6b8e9643a" d="M 0 3 
C 0.795609 3 1.55874 2.683901 2.12132 2.12132 
C 2.683901 1.55874 3 0.795609 3 0 
C 3 -0.795609 2.683901 -1.55874 2.12132 -2.12132 
C 1.55874 -2.683901 0.795609 -3 0 -3 
C -0.795609 -3 -1.55874 -2.683901 -2.12132 -2.12132 
C -2.683901 -1.55874 -3 -0.795609 -3 0 
C -3 0.795609 -2.683901 1.55874 -2.12132 2.12132 
C -1.55874 2.683901 -0.795609 3 0 3 
z
" style="stroke: #9467bd"/>
    </defs>
    <g clip-path="url(#pbc5f2b4880)">
     <use xlink:href="#mc6b8e9643a" x="92.290909" y="369.36" style="fill: #9467bd; stroke: #9467bd"/>
     <use xlink:href="#mc6b8e9643a" x="173.454545" y="226.71496" style="fill: #9467bd; stroke: #9467bd"/>
     <use xlink:href="#mc6b8e9643a" x="254.618182" y="141.217945" style="fill: #9467bd; stroke: #9467bd"/>
     <use xlink:href="#mc6b8e9643a" x="335.781818" y="141.217945" style="fill: #9467bd; stroke: #9467bd"/>
     <use xlink:href="#mc6b8e9643a" x="416.945455" y="226.71496" style="fill: #9467bd; stroke: #9467bd"/>
     <use xlink:href="#mc6b8e9643a" x="498.109091" y="369.36" style="fill: #9467bd; stroke: #9467bd"/>
    </g>
   </g>
   <g id="line2d_24">
    <path d="M 92.290909 369.36 
L 173.454545 239.216091 
L 254.618182 159.920417 
L 335.781818 159.920417 
L 416.945455 239.216091 
L 498.109091 369.36 
" clip-path="url(#pbc5f2b4880)" style="fill: none; stroke-dasharray: 1,1.65; stroke-dashoffset: 0; stroke: #8c564b"/>
    <defs>
     <path id="m74089289de" d="M 0 3 
C 0.795609 3 1.55874 2.683901 2.12132 2.12132 
C 2.683901 1.55874 3 0.795609 3 0 
C 3 -0.795609 2.683901 -1.55874 2.12132 -2.12132 
C 1.55874 -2.683901 0.795609 -3 0 -3 
C -0.795609 -3 -1.55874 -2.683901 -2.12132 -2.12132 
C -2.683901 -1.55874 -3 -0.795609 -3 0 
C -3 0.795609 -2.683901 1.55874 -2.12132 2.12132 
C -1.55874 2.683901 -0.795609 3 0 3 
z
" style="stroke: #8c564b"/>
    </defs>
    <g clip-path="url(#pbc5f2b4880)">
     <use xlink:href="#m74089289de" x="92.290909" y="369.36" style="fill: #8c564b; stroke: #8c564b"/>
     <use xlink:href="#m74089289de" x="173.454545" y="239.216091" style="fill: #8c564b; stroke: #8c564b"/>
     <use xlink:href="#m74089289de" x="254.618182" y="159.920417" style="fill: #8c564b; stroke: #8c564b"/>
     <use xlink:href="#m74089289de" x="335.781818" y="159.920417" style="fill: #8c564b; stroke: #8c564b"/>
     <use xlink:href="#m74089289de" x="416.945455" y="239.216091" style="fill: #8c564b; stroke: #8c564b"/>
     <use xlink:href="#m74089289de" x="498.109091" y="369.36" style="fill: #8c564b; stroke: #8c564b"/>
    </g>
   </g>
   <g id="patch_3">
    <path d="M 72 384.48 
L 72 51.84 
" style="fill: none; stroke: #000000; stroke-width: 0.8; stroke-linejoin: miter; stroke-linecap: square"/>
   </g>
   <g id="patch_4">
    <path d="M 518.4 384.48 
L 518.4 51.84 
" style="fill: none; stroke: #000000; stroke-width: 0.8; stroke-linejoin: miter; stroke-linecap: square"/>
   </g>
   <g id="patch_5">
    <path d="M 72 384.48 
L 518.4 384.48 
" style="fill: none; stroke: #000000; stroke-width: 0.8; stroke-linejoin: miter; stroke-linecap: square"/>
   </g>
   <g id="patch_6">
    <path d="M 72 51.84 
L 518.4 51.84 
" style="fill: none; stroke: #000000; stroke-width: 0.8; stroke-linejoin: miter; stroke-linecap: square"/>
   </g>
   <g id="legend_1">
    <g id="patch_7">
     <path d="M 253.696875 379.48 
L 336.703125 379.48 
Q 338.703125 379.48 338.703125 377.48 
L 338.703125 261.055 
Q 338.703125 259.055 336.703125 259.055 
L 253.696875 259.055 
Q 251.696875 259.055 251.696875 261.055 
L 251.696875 377.48 
Q 251.696875 379.48 253.696875 379.48 
z
" style="fill: #ffffff; opacity: 0.8; stroke: #cccccc; stroke-linejoin: miter"/>
    </g>
    <g id="line2d_25">
     <path d="M 255.696875 267.153437 
L 265.696875 267.153437 
L 275.696875 267.153437 
" style="fill: none; stroke-dasharray: 1,1.65; stroke-dashoffset: 0; stroke: #1f77b4"/>
     <g>
      <use xlink:href="#mf22e03f48b" x="265.696875" y="267.153437" style="fill: #1f77b4; stroke: #1f77b4"/>
     </g>
    </g>
    <g id="text_15">
     <!-- $t=100$s -->
     <g transform="translate(283.696875 270.653437) scale(0.1 -0.1)">
      <defs>
       <path id="DejaVuSans-Oblique-74" d="M 2706 3500 
L 2619 3053 
L 1472 3053 
L 1100 1153 
Q 1081 1047 1072 975 
Q 1063 903 1063 863 
Q 1063 663 1183 572 
Q 1303 481 1569 481 
L 2150 481 
L 2053 0 
L 1503 0 
Q 991 0 739 200 
Q 488 400 488 806 
Q 488 878 497 964 
Q 506 1050 525 1153 
L 897 3053 
L 409 3053 
L 500 3500 
L 978 3500 
L 1172 4494 
L 1747 4494 
L 1556 3500 
L 2706 3500 
z
" transform="scale(0.015625)"/>
       <path id="DejaVuSans-3d" d="M 678 2906 
L 4684 2906 
L 4684 2381 
L 678 2381 
L 678 2906 
z
M 678 1631 
L 4684 1631 
L 4684 1100 
L 678 1100 
L 678 1631 
z
" transform="scale(0.015625)"/>
       <path id="DejaVuSans-73" d="M 2834 3397 
L 2834 2853 
Q 2591 2978 2328 3040 
Q 2066 3103 1784 3103 
Q 1356 3103 1142 2972 
Q 928 2841 928 2578 
Q 928 2378 1081 2264 
Q 1234 2150 1697 2047 
L 1894 2003 
Q 2506 1872 2764 1633 
Q 3022 1394 3022 966 
Q 3022 478 2636 193 
Q 2250 -91 1575 -91 
Q 1294 -91 989 -36 
Q 684 19 347 128 
L 347 722 
Q 666 556 975 473 
Q 1284 391 1588 391 
Q 1994 391 2212 530 
Q 2431 669 2431 922 
Q 2431 1156 2273 1281 
Q 2116 1406 1581 1522 
L 1381 1569 
Q 847 1681 609 1914 
Q 372 2147 372 2553 
Q 372 3047 722 3315 
Q 1072 3584 1716 3584 
Q 2034 3584 2315 3537 
Q 2597 3491 2834 3397 
z
" transform="scale(0.015625)"/>
      </defs>
      <use xlink:href="#DejaVuSans-Oblique-74" transform="translate(0 0.78125)"/>
      <use xlink:href="#DejaVuSans-3d" transform="translate(58.691406 0.78125)"/>
      <use xlink:href="#DejaVuSans-31" transform="translate(161.962891 0.78125)"/>
      <use xlink:href="#DejaVuSans-30" transform="translate(225.585938 0.78125)"/>
      <use xlink:href="#DejaVuSans-30" transform="translate(289.208984 0.78125)"/>
      <use xlink:href="#DejaVuSans-73" transform="translate(352.832031 0.78125)"/>
     </g>
    </g>
    <g id="line2d_26">
     <path d="M 255.696875 281.831563 
L 265.696875 281.831563 
L 275.696875 281.831563 
" style="fill: none; stroke-dasharray: 1,1.65; stroke-dashoffset: 0; stroke: #ff7f0e"/>
     <g>
      <use xlink:href="#m4480916ae7" x="265.696875" y="281.831563" style="fill: #ff7f0e; stroke: #ff7f0e"/>
     </g>
    </g>
    <g id="text_16">
     <!-- $t=200$s -->
     <g transform="translate(283.696875 285.331563) scale(0.1 -0.1)">
      <use xlink:href="#DejaVuSans-Oblique-74" transform="translate(0 0.78125)"/>
      <use xlink:href="#DejaVuSans-3d" transform="translate(58.691406 0.78125)"/>
      <use xlink:href="#DejaVuSans-32" transform="translate(161.962891 0.78125)"/>
      <use xlink:href="#DejaVuSans-30" transform="translate(225.585938 0.78125)"/>
      <use xlink:href="#DejaVuSans-30" transform="translate(289.208984 0.78125)"/>
      <use xlink:href="#DejaVuSans-73" transform="translate(352.832031 0.78125)"/>
     </g>
    </g>
    <g id="line2d_27">
     <path d="M 255.696875 296.509688 
L 265.696875 296.509688 
L 275.696875 296.509688 
" style="fill: none; stroke-dasharray: 1,1.65; stroke-dashoffset: 0; stroke: #2ca02c"/>
     <g>
      <use xlink:href="#me1ac6adc4a" x="265.696875" y="296.509688" style="fill: #2ca02c; stroke: #2ca02c"/>
     </g>
    </g>
    <g id="text_17">
     <!-- $t=300$s -->
     <g transform="translate(283.696875 300.009688) scale(0.1 -0.1)">
      <use xlink:href="#DejaVuSans-Oblique-74" transform="translate(0 0.78125)"/>
      <use xlink:href="#DejaVuSans-3d" transform="translate(58.691406 0.78125)"/>
      <use xlink:href="#DejaVuSans-33" transform="translate(161.962891 0.78125)"/>
      <use xlink:href="#DejaVuSans-30" transform="translate(225.585938 0.78125)"/>
      <use xlink:href="#DejaVuSans-30" transform="translate(289.208984 0.78125)"/>
      <use xlink:href="#DejaVuSans-73" transform="translate(352.832031 0.78125)"/>
     </g>
    </g>
    <g id="line2d_28">
     <path d="M 255.696875 311.187813 
L 265.696875 311.187813 
L 275.696875 311.187813 
" style="fill: none; stroke-dasharray: 1,1.65; stroke-dashoffset: 0; stroke: #d62728"/>
     <g>
      <use xlink:href="#m7ca60ec1c2" x="265.696875" y="311.187813" style="fill: #d62728; stroke: #d62728"/>
     </g>
    </g>
    <g id="text_18">
     <!-- $t=400$s -->
     <g transform="translate(283.696875 314.687813) scale(0.1 -0.1)">
      <use xlink:href="#DejaVuSans-Oblique-74" transform="translate(0 0.78125)"/>
      <use xlink:href="#DejaVuSans-3d" transform="translate(58.691406 0.78125)"/>
      <use xlink:href="#DejaVuSans-34" transform="translate(161.962891 0.78125)"/>
      <use xlink:href="#DejaVuSans-30" transform="translate(225.585938 0.78125)"/>
      <use xlink:href="#DejaVuSans-30" transform="translate(289.208984 0.78125)"/>
      <use xlink:href="#DejaVuSans-73" transform="translate(352.832031 0.78125)"/>
     </g>
    </g>
    <g id="line2d_29">
     <path d="M 255.696875 325.865938 
L 265.696875 325.865938 
L 275.696875 325.865938 
" style="fill: none; stroke-dasharray: 1,1.65; stroke-dashoffset: 0; stroke: #9467bd"/>
     <g>
      <use xlink:href="#mc6b8e9643a" x="265.696875" y="325.865938" style="fill: #9467bd; stroke: #9467bd"/>
     </g>
    </g>
    <g id="text_19">
     <!-- $t=500$s -->
     <g transform="translate(283.696875 329.365938) scale(0.1 -0.1)">
      <use xlink:href="#DejaVuSans-Oblique-74" transform="translate(0 0.78125)"/>
      <use xlink:href="#DejaVuSans-3d" transform="translate(58.691406 0.78125)"/>
      <use xlink:href="#DejaVuSans-35" transform="translate(161.962891 0.78125)"/>
      <use xlink:href="#DejaVuSans-30" transform="translate(225.585938 0.78125)"/>
      <use xlink:href="#DejaVuSans-30" transform="translate(289.208984 0.78125)"/>
      <use xlink:href="#DejaVuSans-73" transform="translate(352.832031 0.78125)"/>
     </g>
    </g>
    <g id="line2d_30">
     <path d="M 255.696875 340.544062 
L 265.696875 340.544062 
L 275.696875 340.544062 
" style="fill: none; stroke-dasharray: 1,1.65; stroke-dashoffset: 0; stroke: #8c564b"/>
     <g>
      <use xlink:href="#m74089289de" x="265.696875" y="340.544062" style="fill: #8c564b; stroke: #8c564b"/>
     </g>
    </g>
    <g id="text_20">
     <!-- $t=600$s -->
     <g transform="translate(283.696875 344.044062) scale(0.1 -0.1)">
      <use xlink:href="#DejaVuSans-Oblique-74" transform="translate(0 0.78125)"/>
      <use xlink:href="#DejaVuSans-3d" transform="translate(58.691406 0.78125)"/>
      <use xlink:href="#DejaVuSans-36" transform="translate(161.962891 0.78125)"/>
      <use xlink:href="#DejaVuSans-30" transform="translate(225.585938 0.78125)"/>
      <use xlink:href="#DejaVuSans-30" transform="translate(289.208984 0.78125)"/>
      <use xlink:href="#DejaVuSans-73" transform="translate(352.832031 0.78125)"/>
     </g>
    </g>
    <g id="line2d_31">
     <path d="M 255.696875 355.222188 
L 265.696875 355.222188 
L 275.696875 355.222188 
" style="fill: none; stroke: #000000; stroke-width: 1.5; stroke-linecap: square"/>
    </g>
    <g id="text_21">
     <!-- Analytical -->
     <g transform="translate(283.696875 358.722188) scale(0.1 -0.1)">
      <defs>
       <path id="DejaVuSans-41" d="M 2188 4044 
L 1331 1722 
L 3047 1722 
L 2188 4044 
z
M 1831 4666 
L 2547 4666 
L 4325 0 
L 3669 0 
L 3244 1197 
L 1141 1197 
L 716 0 
L 50 0 
L 1831 4666 
z
" transform="scale(0.015625)"/>
       <path id="DejaVuSans-6e" d="M 3513 2113 
L 3513 0 
L 2938 0 
L 2938 2094 
Q 2938 2591 2744 2837 
Q 2550 3084 2163 3084 
Q 1697 3084 1428 2787 
Q 1159 2491 1159 1978 
L 1159 0 
L 581 0 
L 581 3500 
L 1159 3500 
L 1159 2956 
Q 1366 3272 1645 3428 
Q 1925 3584 2291 3584 
Q 2894 3584 3203 3211 
Q 3513 2838 3513 2113 
z
" transform="scale(0.015625)"/>
       <path id="DejaVuSans-61" d="M 2194 1759 
Q 1497 1759 1228 1600 
Q 959 1441 959 1056 
Q 959 750 1161 570 
Q 1363 391 1709 391 
Q 2188 391 2477 730 
Q 2766 1069 2766 1631 
L 2766 1759 
L 2194 1759 
z
M 3341 1997 
L 3341 0 
L 2766 0 
L 2766 531 
Q 2569 213 2275 61 
Q 1981 -91 1556 -91 
Q 1019 -91 701 211 
Q 384 513 384 1019 
Q 384 1609 779 1909 
Q 1175 2209 1959 2209 
L 2766 2209 
L 2766 2266 
Q 2766 2663 2505 2880 
Q 2244 3097 1772 3097 
Q 1472 3097 1187 3025 
Q 903 2953 641 2809 
L 641 3341 
Q 956 3463 1253 3523 
Q 1550 3584 1831 3584 
Q 2591 3584 2966 3190 
Q 3341 2797 3341 1997 
z
" transform="scale(0.015625)"/>
       <path id="DejaVuSans-6c" d="M 603 4863 
L 1178 4863 
L 1178 0 
L 603 0 
L 603 4863 
z
" transform="scale(0.015625)"/>
       <path id="DejaVuSans-79" d="M 2059 -325 
Q 1816 -950 1584 -1140 
Q 1353 -1331 966 -1331 
L 506 -1331 
L 506 -850 
L 844 -850 
Q 1081 -850 1212 -737 
Q 1344 -625 1503 -206 
L 1606 56 
L 191 3500 
L 800 3500 
L 1894 763 
L 2988 3500 
L 3597 3500 
L 2059 -325 
z
" transform="scale(0.015625)"/>
       <path id="DejaVuSans-74" d="M 1172 4494 
L 1172 3500 
L 2356 3500 
L 2356 3053 
L 1172 3053 
L 1172 1153 
Q 1172 725 1289 603 
Q 1406 481 1766 481 
L 2356 481 
L 2356 0 
L 1766 0 
Q 1100 0 847 248 
Q 594 497 594 1153 
L 594 3053 
L 172 3053 
L 172 3500 
L 594 3500 
L 594 4494 
L 1172 4494 
z
" transform="scale(0.015625)"/>
       <path id="DejaVuSans-69" d="M 603 3500 
L 1178 3500 
L 1178 0 
L 603 0 
L 603 3500 
z
M 603 4863 
L 1178 4863 
L 1178 4134 
L 603 4134 
L 603 4863 
z
" transform="scale(0.015625)"/>
      </defs>
      <use xlink:href="#DejaVuSans-41"/>
      <use xlink:href="#DejaVuSans-6e" x="68.408203"/>
      <use xlink:href="#DejaVuSans-61" x="131.787109"/>
      <use xlink:href="#DejaVuSans-6c" x="193.066406"/>
      <use xlink:href="#DejaVuSans-79" x="220.849609"/>
      <use xlink:href="#DejaVuSans-74" x="280.029297"/>
      <use xlink:href="#DejaVuSans-69" x="319.238281"/>
      <use xlink:href="#DejaVuSans-63" x="347.021484"/>
      <use xlink:href="#DejaVuSans-61" x="402.001953"/>
      <use xlink:href="#DejaVuSans-6c" x="463.28125"/>
     </g>
    </g>
    <g id="line2d_32">
     <path d="M 255.696875 369.900313 
L 265.696875 369.900313 
L 275.696875 369.900313 
" style="fill: none; stroke-dasharray: 1.5,2.475; stroke-dashoffset: 0; stroke: #000000; stroke-width: 1.5"/>
     <defs>
      <path id="m2168a82c82" d="M -3 3 
L 3 3 
L 3 -3 
L -3 -3 
z
" style="stroke: #000000; stroke-linejoin: miter"/>
     </defs>
     <g>
      <use xlink:href="#m2168a82c82" x="265.696875" y="369.900313" style="stroke: #000000; stroke-linejoin: miter"/>
     </g>
    </g>
    <g id="text_22">
     <!-- Numerical -->
     <g transform="translate(283.696875 373.400313) scale(0.1 -0.1)">
      <defs>
       <path id="DejaVuSans-4e" d="M 628 4666 
L 1478 4666 
L 3547 763 
L 3547 4666 
L 4159 4666 
L 4159 0 
L 3309 0 
L 1241 3903 
L 1241 0 
L 628 0 
L 628 4666 
z
" transform="scale(0.015625)"/>
       <path id="DejaVuSans-75" d="M 544 1381 
L 544 3500 
L 1119 3500 
L 1119 1403 
Q 1119 906 1312 657 
Q 1506 409 1894 409 
Q 2359 409 2629 706 
Q 2900 1003 2900 1516 
L 2900 3500 
L 3475 3500 
L 3475 0 
L 2900 0 
L 2900 538 
Q 2691 219 2414 64 
Q 2138 -91 1772 -91 
Q 1169 -91 856 284 
Q 544 659 544 1381 
z
M 1991 3584 
L 1991 3584 
z
" transform="scale(0.015625)"/>
       <path id="DejaVuSans-65" d="M 3597 1894 
L 3597 1613 
L 953 1613 
Q 991 1019 1311 708 
Q 1631 397 2203 397 
Q 2534 397 2845 478 
Q 3156 559 3463 722 
L 3463 178 
Q 3153 47 2828 -22 
Q 2503 -91 2169 -91 
Q 1331 -91 842 396 
Q 353 884 353 1716 
Q 353 2575 817 3079 
Q 1281 3584 2069 3584 
Q 2775 3584 3186 3129 
Q 3597 2675 3597 1894 
z
M 3022 2063 
Q 3016 2534 2758 2815 
Q 2500 3097 2075 3097 
Q 1594 3097 1305 2825 
Q 1016 2553 972 2059 
L 3022 2063 
z
" transform="scale(0.015625)"/>
       <path id="DejaVuSans-72" d="M 2631 2963 
Q 2534 3019 2420 3045 
Q 2306 3072 2169 3072 
Q 1681 3072 1420 2755 
Q 1159 2438 1159 1844 
L 1159 0 
L 581 0 
L 581 3500 
L 1159 3500 
L 1159 2956 
Q 1341 3275 1631 3429 
Q 1922 3584 2338 3584 
Q 2397 3584 2469 3576 
Q 2541 3569 2628 3553 
L 2631 2963 
z
" transform="scale(0.015625)"/>
      </defs>
      <use xlink:href="#DejaVuSans-4e"/>
      <use xlink:href="#DejaVuSans-75" x="74.804688"/>
      <use xlink:href="#DejaVuSans-6d" x="138.183594"/>
      <use xlink:href="#DejaVuSans-65" x="235.595703"/>
      <use xlink:href="#DejaVuSans-72" x="297.119141"/>
      <use xlink:href="#DejaVuSans-69" x="338.232422"/>
      <use xlink:href="#DejaVuSans-63" x="366.015625"/>
      <use xlink:href="#DejaVuSans-61" x="420.996094"/>
      <use xlink:href="#DejaVuSans-6c" x="482.275391"/>
     </g>
    </g>
   </g>
  </g>
 </g>
 <defs>
  <clipPath id="pbc5f2b4880">
   <rect x="72" y="51.84" width="446.4" height="332.64"/>
  </clipPath>
 </defs>
</svg>
