<?xml version="1.0" encoding="utf-8" standalone="no"?>
<!DOCTYPE svg PUBLIC "-//W3C//DTD SVG 1.1//EN"
  "http://www.w3.org/Graphics/SVG/1.1/DTD/svg11.dtd">
<svg xmlns:xlink="http://www.w3.org/1999/xlink" width="576pt" height="288pt" viewBox="0 0 576 288" xmlns="http://www.w3.org/2000/svg" version="1.1">
 <metadata>
  <rdf:RDF xmlns:dc="http://purl.org/dc/elements/1.1/" xmlns:cc="http://creativecommons.org/ns#" xmlns:rdf="http://www.w3.org/1999/02/22-rdf-syntax-ns#">
   <cc:Work>
    <dc:type rdf:resource="http://purl.org/dc/dcmitype/StillImage"/>
    <dc:date>2024-02-18T17:18:16.266828</dc:date>
    <dc:format>image/svg+xml</dc:format>
    <dc:creator>
     <cc:Agent>
      <dc:title>Matplotlib v3.5.1, https://matplotlib.org/</dc:title>
     </cc:Agent>
    </dc:creator>
   </cc:Work>
  </rdf:RDF>
 </metadata>
 <defs>
  <style type="text/css">*{stroke-linejoin: round; stroke-linecap: butt}</style>
 </defs>
 <g id="figure_1">
  <g id="patch_1">
   <path d="M 0 288 
L 576 288 
L 576 0 
L 0 0 
z
" style="fill: #fdf6e3"/>
  </g>
  <g id="axes_1">
   <g id="patch_2">
    <path d="M 72 252 
L 518.4 252 
L 518.4 34.56 
L 72 34.56 
z
" style="fill: #eee8d5"/>
   </g>
   <g id="matplotlib.axis_1">
    <g id="xtick_1">
     <g id="line2d_1">
      <path d="M 92.290909 252 
L 92.290909 34.56 
" clip-path="url(#p3571c92cb7)" style="fill: none; stroke: #fdf6e3"/>
     </g>
     <g id="line2d_2">
      <defs>
       <path id="m929bf7b434" d="M 0 0 
L 0 3.5 
" style="stroke: #657b83; stroke-width: 0.8"/>
      </defs>
      <g>
       <use xlink:href="#m929bf7b434" x="92.290909" y="252" style="fill: #657b83; stroke: #657b83; stroke-width: 0.8"/>
      </g>
     </g>
     <g id="text_1">
      <!-- $\mathdefault{10^{6}}$ -->
      <g style="fill: #657b83" transform="translate(83.490909 266.598437)scale(0.1 -0.1)">
       <defs>
        <path id="DejaVuSans-31" d="M 794 531 
L 1825 531 
L 1825 4091 
L 703 3866 
L 703 4441 
L 1819 4666 
L 2450 4666 
L 2450 531 
L 3481 531 
L 3481 0 
L 794 0 
L 794 531 
z
" transform="scale(0.015625)"/>
        <path id="DejaVuSans-30" d="M 2034 4250 
Q 1547 4250 1301 3770 
Q 1056 3291 1056 2328 
Q 1056 1369 1301 889 
Q 1547 409 2034 409 
Q 2525 409 2770 889 
Q 3016 1369 3016 2328 
Q 3016 3291 2770 3770 
Q 2525 4250 2034 4250 
z
M 2034 4750 
Q 2819 4750 3233 4129 
Q 3647 3509 3647 2328 
Q 3647 1150 3233 529 
Q 2819 -91 2034 -91 
Q 1250 -91 836 529 
Q 422 1150 422 2328 
Q 422 3509 836 4129 
Q 1250 4750 2034 4750 
z
" transform="scale(0.015625)"/>
        <path id="DejaVuSans-36" d="M 2113 2584 
Q 1688 2584 1439 2293 
Q 1191 2003 1191 1497 
Q 1191 994 1439 701 
Q 1688 409 2113 409 
Q 2538 409 2786 701 
Q 3034 994 3034 1497 
Q 3034 2003 2786 2293 
Q 2538 2584 2113 2584 
z
M 3366 4563 
L 3366 3988 
Q 3128 4100 2886 4159 
Q 2644 4219 2406 4219 
Q 1781 4219 1451 3797 
Q 1122 3375 1075 2522 
Q 1259 2794 1537 2939 
Q 1816 3084 2150 3084 
Q 2853 3084 3261 2657 
Q 3669 2231 3669 1497 
Q 3669 778 3244 343 
Q 2819 -91 2113 -91 
Q 1303 -91 875 529 
Q 447 1150 447 2328 
Q 447 3434 972 4092 
Q 1497 4750 2381 4750 
Q 2619 4750 2861 4703 
Q 3103 4656 3366 4563 
z
" transform="scale(0.015625)"/>
       </defs>
       <use xlink:href="#DejaVuSans-31" transform="translate(0 0.765625)"/>
       <use xlink:href="#DejaVuSans-30" transform="translate(63.623047 0.765625)"/>
       <use xlink:href="#DejaVuSans-36" transform="translate(128.203125 39.046875)scale(0.7)"/>
      </g>
     </g>
    </g>
    <g id="xtick_2">
     <g id="line2d_3">
      <path d="M 242.651299 252 
L 242.651299 34.56 
" clip-path="url(#p3571c92cb7)" style="fill: none; stroke: #fdf6e3"/>
     </g>
     <g id="line2d_4">
      <g>
       <use xlink:href="#m929bf7b434" x="242.651299" y="252" style="fill: #657b83; stroke: #657b83; stroke-width: 0.8"/>
      </g>
     </g>
     <g id="text_2">
      <!-- $\mathdefault{10^{7}}$ -->
      <g style="fill: #657b83" transform="translate(233.851299 266.598437)scale(0.1 -0.1)">
       <defs>
        <path id="DejaVuSans-37" d="M 525 4666 
L 3525 4666 
L 3525 4397 
L 1831 0 
L 1172 0 
L 2766 4134 
L 525 4134 
L 525 4666 
z
" transform="scale(0.015625)"/>
       </defs>
       <use xlink:href="#DejaVuSans-31" transform="translate(0 0.684375)"/>
       <use xlink:href="#DejaVuSans-30" transform="translate(63.623047 0.684375)"/>
       <use xlink:href="#DejaVuSans-37" transform="translate(128.203125 38.965625)scale(0.7)"/>
      </g>
     </g>
    </g>
    <g id="xtick_3">
     <g id="line2d_5">
      <path d="M 393.011689 252 
L 393.011689 34.56 
" clip-path="url(#p3571c92cb7)" style="fill: none; stroke: #fdf6e3"/>
     </g>
     <g id="line2d_6">
      <g>
       <use xlink:href="#m929bf7b434" x="393.011689" y="252" style="fill: #657b83; stroke: #657b83; stroke-width: 0.8"/>
      </g>
     </g>
     <g id="text_3">
      <!-- $\mathdefault{10^{8}}$ -->
      <g style="fill: #657b83" transform="translate(384.211689 266.598437)scale(0.1 -0.1)">
       <defs>
        <path id="DejaVuSans-38" d="M 2034 2216 
Q 1584 2216 1326 1975 
Q 1069 1734 1069 1313 
Q 1069 891 1326 650 
Q 1584 409 2034 409 
Q 2484 409 2743 651 
Q 3003 894 3003 1313 
Q 3003 1734 2745 1975 
Q 2488 2216 2034 2216 
z
M 1403 2484 
Q 997 2584 770 2862 
Q 544 3141 544 3541 
Q 544 4100 942 4425 
Q 1341 4750 2034 4750 
Q 2731 4750 3128 4425 
Q 3525 4100 3525 3541 
Q 3525 3141 3298 2862 
Q 3072 2584 2669 2484 
Q 3125 2378 3379 2068 
Q 3634 1759 3634 1313 
Q 3634 634 3220 271 
Q 2806 -91 2034 -91 
Q 1263 -91 848 271 
Q 434 634 434 1313 
Q 434 1759 690 2068 
Q 947 2378 1403 2484 
z
M 1172 3481 
Q 1172 3119 1398 2916 
Q 1625 2713 2034 2713 
Q 2441 2713 2670 2916 
Q 2900 3119 2900 3481 
Q 2900 3844 2670 4047 
Q 2441 4250 2034 4250 
Q 1625 4250 1398 4047 
Q 1172 3844 1172 3481 
z
" transform="scale(0.015625)"/>
       </defs>
       <use xlink:href="#DejaVuSans-31" transform="translate(0 0.765625)"/>
       <use xlink:href="#DejaVuSans-30" transform="translate(63.623047 0.765625)"/>
       <use xlink:href="#DejaVuSans-38" transform="translate(128.203125 39.046875)scale(0.7)"/>
      </g>
     </g>
    </g>
    <g id="xtick_4">
     <g id="line2d_7">
      <defs>
       <path id="ma7b6f4820a" d="M 0 0 
L 0 2 
" style="stroke: #657b83; stroke-width: 0.6"/>
      </defs>
      <g>
       <use xlink:href="#ma7b6f4820a" x="77.719482" y="252" style="fill: #657b83; stroke: #657b83; stroke-width: 0.6"/>
      </g>
     </g>
    </g>
    <g id="xtick_5">
     <g id="line2d_8">
      <g>
       <use xlink:href="#ma7b6f4820a" x="85.410795" y="252" style="fill: #657b83; stroke: #657b83; stroke-width: 0.6"/>
      </g>
     </g>
    </g>
    <g id="xtick_6">
     <g id="line2d_9">
      <g>
       <use xlink:href="#ma7b6f4820a" x="137.553897" y="252" style="fill: #657b83; stroke: #657b83; stroke-width: 0.6"/>
      </g>
     </g>
    </g>
    <g id="xtick_7">
     <g id="line2d_10">
      <g>
       <use xlink:href="#ma7b6f4820a" x="164.031047" y="252" style="fill: #657b83; stroke: #657b83; stroke-width: 0.6"/>
      </g>
     </g>
    </g>
    <g id="xtick_8">
     <g id="line2d_11">
      <g>
       <use xlink:href="#ma7b6f4820a" x="182.816884" y="252" style="fill: #657b83; stroke: #657b83; stroke-width: 0.6"/>
      </g>
     </g>
    </g>
    <g id="xtick_9">
     <g id="line2d_12">
      <g>
       <use xlink:href="#ma7b6f4820a" x="197.388311" y="252" style="fill: #657b83; stroke: #657b83; stroke-width: 0.6"/>
      </g>
     </g>
    </g>
    <g id="xtick_10">
     <g id="line2d_13">
      <g>
       <use xlink:href="#ma7b6f4820a" x="209.294034" y="252" style="fill: #657b83; stroke: #657b83; stroke-width: 0.6"/>
      </g>
     </g>
    </g>
    <g id="xtick_11">
     <g id="line2d_14">
      <g>
       <use xlink:href="#ma7b6f4820a" x="219.36018" y="252" style="fill: #657b83; stroke: #657b83; stroke-width: 0.6"/>
      </g>
     </g>
    </g>
    <g id="xtick_12">
     <g id="line2d_15">
      <g>
       <use xlink:href="#ma7b6f4820a" x="228.079872" y="252" style="fill: #657b83; stroke: #657b83; stroke-width: 0.6"/>
      </g>
     </g>
    </g>
    <g id="xtick_13">
     <g id="line2d_16">
      <g>
       <use xlink:href="#ma7b6f4820a" x="235.771185" y="252" style="fill: #657b83; stroke: #657b83; stroke-width: 0.6"/>
      </g>
     </g>
    </g>
    <g id="xtick_14">
     <g id="line2d_17">
      <g>
       <use xlink:href="#ma7b6f4820a" x="287.914286" y="252" style="fill: #657b83; stroke: #657b83; stroke-width: 0.6"/>
      </g>
     </g>
    </g>
    <g id="xtick_15">
     <g id="line2d_18">
      <g>
       <use xlink:href="#ma7b6f4820a" x="314.391437" y="252" style="fill: #657b83; stroke: #657b83; stroke-width: 0.6"/>
      </g>
     </g>
    </g>
    <g id="xtick_16">
     <g id="line2d_19">
      <g>
       <use xlink:href="#ma7b6f4820a" x="333.177274" y="252" style="fill: #657b83; stroke: #657b83; stroke-width: 0.6"/>
      </g>
     </g>
    </g>
    <g id="xtick_17">
     <g id="line2d_20">
      <g>
       <use xlink:href="#ma7b6f4820a" x="347.748701" y="252" style="fill: #657b83; stroke: #657b83; stroke-width: 0.6"/>
      </g>
     </g>
    </g>
    <g id="xtick_18">
     <g id="line2d_21">
      <g>
       <use xlink:href="#ma7b6f4820a" x="359.654424" y="252" style="fill: #657b83; stroke: #657b83; stroke-width: 0.6"/>
      </g>
     </g>
    </g>
    <g id="xtick_19">
     <g id="line2d_22">
      <g>
       <use xlink:href="#ma7b6f4820a" x="369.72057" y="252" style="fill: #657b83; stroke: #657b83; stroke-width: 0.6"/>
      </g>
     </g>
    </g>
    <g id="xtick_20">
     <g id="line2d_23">
      <g>
       <use xlink:href="#ma7b6f4820a" x="378.440261" y="252" style="fill: #657b83; stroke: #657b83; stroke-width: 0.6"/>
      </g>
     </g>
    </g>
    <g id="xtick_21">
     <g id="line2d_24">
      <g>
       <use xlink:href="#ma7b6f4820a" x="386.131575" y="252" style="fill: #657b83; stroke: #657b83; stroke-width: 0.6"/>
      </g>
     </g>
    </g>
    <g id="xtick_22">
     <g id="line2d_25">
      <g>
       <use xlink:href="#ma7b6f4820a" x="438.274676" y="252" style="fill: #657b83; stroke: #657b83; stroke-width: 0.6"/>
      </g>
     </g>
    </g>
    <g id="xtick_23">
     <g id="line2d_26">
      <g>
       <use xlink:href="#ma7b6f4820a" x="464.751826" y="252" style="fill: #657b83; stroke: #657b83; stroke-width: 0.6"/>
      </g>
     </g>
    </g>
    <g id="xtick_24">
     <g id="line2d_27">
      <g>
       <use xlink:href="#ma7b6f4820a" x="483.537664" y="252" style="fill: #657b83; stroke: #657b83; stroke-width: 0.6"/>
      </g>
     </g>
    </g>
    <g id="xtick_25">
     <g id="line2d_28">
      <g>
       <use xlink:href="#ma7b6f4820a" x="498.109091" y="252" style="fill: #657b83; stroke: #657b83; stroke-width: 0.6"/>
      </g>
     </g>
    </g>
    <g id="xtick_26">
     <g id="line2d_29">
      <g>
       <use xlink:href="#ma7b6f4820a" x="510.014814" y="252" style="fill: #657b83; stroke: #657b83; stroke-width: 0.6"/>
      </g>
     </g>
    </g>
    <g id="text_4">
     <!-- Iteration -->
     <g style="fill: #657b83" transform="translate(269.749687 281.79625)scale(0.12 -0.12)">
      <defs>
       <path id="DejaVuSans-49" d="M 628 4666 
L 1259 4666 
L 1259 0 
L 628 0 
L 628 4666 
z
" transform="scale(0.015625)"/>
       <path id="DejaVuSans-74" d="M 1172 4494 
L 1172 3500 
L 2356 3500 
L 2356 3053 
L 1172 3053 
L 1172 1153 
Q 1172 725 1289 603 
Q 1406 481 1766 481 
L 2356 481 
L 2356 0 
L 1766 0 
Q 1100 0 847 248 
Q 594 497 594 1153 
L 594 3053 
L 172 3053 
L 172 3500 
L 594 3500 
L 594 4494 
L 1172 4494 
z
" transform="scale(0.015625)"/>
       <path id="DejaVuSans-65" d="M 3597 1894 
L 3597 1613 
L 953 1613 
Q 991 1019 1311 708 
Q 1631 397 2203 397 
Q 2534 397 2845 478 
Q 3156 559 3463 722 
L 3463 178 
Q 3153 47 2828 -22 
Q 2503 -91 2169 -91 
Q 1331 -91 842 396 
Q 353 884 353 1716 
Q 353 2575 817 3079 
Q 1281 3584 2069 3584 
Q 2775 3584 3186 3129 
Q 3597 2675 3597 1894 
z
M 3022 2063 
Q 3016 2534 2758 2815 
Q 2500 3097 2075 3097 
Q 1594 3097 1305 2825 
Q 1016 2553 972 2059 
L 3022 2063 
z
" transform="scale(0.015625)"/>
       <path id="DejaVuSans-72" d="M 2631 2963 
Q 2534 3019 2420 3045 
Q 2306 3072 2169 3072 
Q 1681 3072 1420 2755 
Q 1159 2438 1159 1844 
L 1159 0 
L 581 0 
L 581 3500 
L 1159 3500 
L 1159 2956 
Q 1341 3275 1631 3429 
Q 1922 3584 2338 3584 
Q 2397 3584 2469 3576 
Q 2541 3569 2628 3553 
L 2631 2963 
z
" transform="scale(0.015625)"/>
       <path id="DejaVuSans-61" d="M 2194 1759 
Q 1497 1759 1228 1600 
Q 959 1441 959 1056 
Q 959 750 1161 570 
Q 1363 391 1709 391 
Q 2188 391 2477 730 
Q 2766 1069 2766 1631 
L 2766 1759 
L 2194 1759 
z
M 3341 1997 
L 3341 0 
L 2766 0 
L 2766 531 
Q 2569 213 2275 61 
Q 1981 -91 1556 -91 
Q 1019 -91 701 211 
Q 384 513 384 1019 
Q 384 1609 779 1909 
Q 1175 2209 1959 2209 
L 2766 2209 
L 2766 2266 
Q 2766 2663 2505 2880 
Q 2244 3097 1772 3097 
Q 1472 3097 1187 3025 
Q 903 2953 641 2809 
L 641 3341 
Q 956 3463 1253 3523 
Q 1550 3584 1831 3584 
Q 2591 3584 2966 3190 
Q 3341 2797 3341 1997 
z
" transform="scale(0.015625)"/>
       <path id="DejaVuSans-69" d="M 603 3500 
L 1178 3500 
L 1178 0 
L 603 0 
L 603 3500 
z
M 603 4863 
L 1178 4863 
L 1178 4134 
L 603 4134 
L 603 4863 
z
" transform="scale(0.015625)"/>
       <path id="DejaVuSans-6f" d="M 1959 3097 
Q 1497 3097 1228 2736 
Q 959 2375 959 1747 
Q 959 1119 1226 758 
Q 1494 397 1959 397 
Q 2419 397 2687 759 
Q 2956 1122 2956 1747 
Q 2956 2369 2687 2733 
Q 2419 3097 1959 3097 
z
M 1959 3584 
Q 2709 3584 3137 3096 
Q 3566 2609 3566 1747 
Q 3566 888 3137 398 
Q 2709 -91 1959 -91 
Q 1206 -91 779 398 
Q 353 888 353 1747 
Q 353 2609 779 3096 
Q 1206 3584 1959 3584 
z
" transform="scale(0.015625)"/>
       <path id="DejaVuSans-6e" d="M 3513 2113 
L 3513 0 
L 2938 0 
L 2938 2094 
Q 2938 2591 2744 2837 
Q 2550 3084 2163 3084 
Q 1697 3084 1428 2787 
Q 1159 2491 1159 1978 
L 1159 0 
L 581 0 
L 581 3500 
L 1159 3500 
L 1159 2956 
Q 1366 3272 1645 3428 
Q 1925 3584 2291 3584 
Q 2894 3584 3203 3211 
Q 3513 2838 3513 2113 
z
" transform="scale(0.015625)"/>
      </defs>
      <use xlink:href="#DejaVuSans-49"/>
      <use xlink:href="#DejaVuSans-74" x="29.492188"/>
      <use xlink:href="#DejaVuSans-65" x="68.701172"/>
      <use xlink:href="#DejaVuSans-72" x="130.224609"/>
      <use xlink:href="#DejaVuSans-61" x="171.337891"/>
      <use xlink:href="#DejaVuSans-74" x="232.617188"/>
      <use xlink:href="#DejaVuSans-69" x="271.826172"/>
      <use xlink:href="#DejaVuSans-6f" x="299.609375"/>
      <use xlink:href="#DejaVuSans-6e" x="360.791016"/>
     </g>
    </g>
   </g>
   <g id="matplotlib.axis_2">
    <g id="ytick_1">
     <g id="line2d_30">
      <path d="M 72 224.750962 
L 518.4 224.750962 
" clip-path="url(#p3571c92cb7)" style="fill: none; stroke: #fdf6e3"/>
     </g>
     <g id="line2d_31">
      <defs>
       <path id="mee524f9607" d="M 0 0 
L -3.5 0 
" style="stroke: #657b83; stroke-width: 0.8"/>
      </defs>
      <g>
       <use xlink:href="#mee524f9607" x="72" y="224.750962" style="fill: #657b83; stroke: #657b83; stroke-width: 0.8"/>
      </g>
     </g>
     <g id="text_5">
      <!-- $\mathdefault{10^{-8}}$ -->
      <g style="fill: #657b83" transform="translate(41.5 228.550181)scale(0.1 -0.1)">
       <defs>
        <path id="DejaVuSans-2212" d="M 678 2272 
L 4684 2272 
L 4684 1741 
L 678 1741 
L 678 2272 
z
" transform="scale(0.015625)"/>
       </defs>
       <use xlink:href="#DejaVuSans-31" transform="translate(0 0.765625)"/>
       <use xlink:href="#DejaVuSans-30" transform="translate(63.623047 0.765625)"/>
       <use xlink:href="#DejaVuSans-2212" transform="translate(128.203125 39.046875)scale(0.7)"/>
       <use xlink:href="#DejaVuSans-38" transform="translate(186.855469 39.046875)scale(0.7)"/>
      </g>
     </g>
    </g>
    <g id="ytick_2">
     <g id="line2d_32">
      <path d="M 72 183.378555 
L 518.4 183.378555 
" clip-path="url(#p3571c92cb7)" style="fill: none; stroke: #fdf6e3"/>
     </g>
     <g id="line2d_33">
      <g>
       <use xlink:href="#mee524f9607" x="72" y="183.378555" style="fill: #657b83; stroke: #657b83; stroke-width: 0.8"/>
      </g>
     </g>
     <g id="text_6">
      <!-- $\mathdefault{10^{-6}}$ -->
      <g style="fill: #657b83" transform="translate(41.5 187.177774)scale(0.1 -0.1)">
       <use xlink:href="#DejaVuSans-31" transform="translate(0 0.765625)"/>
       <use xlink:href="#DejaVuSans-30" transform="translate(63.623047 0.765625)"/>
       <use xlink:href="#DejaVuSans-2212" transform="translate(128.203125 39.046875)scale(0.7)"/>
       <use xlink:href="#DejaVuSans-36" transform="translate(186.855469 39.046875)scale(0.7)"/>
      </g>
     </g>
    </g>
    <g id="ytick_3">
     <g id="line2d_34">
      <path d="M 72 142.006148 
L 518.4 142.006148 
" clip-path="url(#p3571c92cb7)" style="fill: none; stroke: #fdf6e3"/>
     </g>
     <g id="line2d_35">
      <g>
       <use xlink:href="#mee524f9607" x="72" y="142.006148" style="fill: #657b83; stroke: #657b83; stroke-width: 0.8"/>
      </g>
     </g>
     <g id="text_7">
      <!-- $\mathdefault{10^{-4}}$ -->
      <g style="fill: #657b83" transform="translate(41.5 145.805367)scale(0.1 -0.1)">
       <defs>
        <path id="DejaVuSans-34" d="M 2419 4116 
L 825 1625 
L 2419 1625 
L 2419 4116 
z
M 2253 4666 
L 3047 4666 
L 3047 1625 
L 3713 1625 
L 3713 1100 
L 3047 1100 
L 3047 0 
L 2419 0 
L 2419 1100 
L 313 1100 
L 313 1709 
L 2253 4666 
z
" transform="scale(0.015625)"/>
       </defs>
       <use xlink:href="#DejaVuSans-31" transform="translate(0 0.684375)"/>
       <use xlink:href="#DejaVuSans-30" transform="translate(63.623047 0.684375)"/>
       <use xlink:href="#DejaVuSans-2212" transform="translate(128.203125 38.965625)scale(0.7)"/>
       <use xlink:href="#DejaVuSans-34" transform="translate(186.855469 38.965625)scale(0.7)"/>
      </g>
     </g>
    </g>
    <g id="ytick_4">
     <g id="line2d_36">
      <path d="M 72 100.633741 
L 518.4 100.633741 
" clip-path="url(#p3571c92cb7)" style="fill: none; stroke: #fdf6e3"/>
     </g>
     <g id="line2d_37">
      <g>
       <use xlink:href="#mee524f9607" x="72" y="100.633741" style="fill: #657b83; stroke: #657b83; stroke-width: 0.8"/>
      </g>
     </g>
     <g id="text_8">
      <!-- $\mathdefault{10^{-2}}$ -->
      <g style="fill: #657b83" transform="translate(41.5 104.43296)scale(0.1 -0.1)">
       <defs>
        <path id="DejaVuSans-32" d="M 1228 531 
L 3431 531 
L 3431 0 
L 469 0 
L 469 531 
Q 828 903 1448 1529 
Q 2069 2156 2228 2338 
Q 2531 2678 2651 2914 
Q 2772 3150 2772 3378 
Q 2772 3750 2511 3984 
Q 2250 4219 1831 4219 
Q 1534 4219 1204 4116 
Q 875 4013 500 3803 
L 500 4441 
Q 881 4594 1212 4672 
Q 1544 4750 1819 4750 
Q 2544 4750 2975 4387 
Q 3406 4025 3406 3419 
Q 3406 3131 3298 2873 
Q 3191 2616 2906 2266 
Q 2828 2175 2409 1742 
Q 1991 1309 1228 531 
z
" transform="scale(0.015625)"/>
       </defs>
       <use xlink:href="#DejaVuSans-31" transform="translate(0 0.765625)"/>
       <use xlink:href="#DejaVuSans-30" transform="translate(63.623047 0.765625)"/>
       <use xlink:href="#DejaVuSans-2212" transform="translate(128.203125 39.046875)scale(0.7)"/>
       <use xlink:href="#DejaVuSans-32" transform="translate(186.855469 39.046875)scale(0.7)"/>
      </g>
     </g>
    </g>
    <g id="ytick_5">
     <g id="line2d_38">
      <path d="M 72 59.261334 
L 518.4 59.261334 
" clip-path="url(#p3571c92cb7)" style="fill: none; stroke: #fdf6e3"/>
     </g>
     <g id="line2d_39">
      <g>
       <use xlink:href="#mee524f9607" x="72" y="59.261334" style="fill: #657b83; stroke: #657b83; stroke-width: 0.8"/>
      </g>
     </g>
     <g id="text_9">
      <!-- $\mathdefault{10^{0}}$ -->
      <g style="fill: #657b83" transform="translate(47.4 63.060553)scale(0.1 -0.1)">
       <use xlink:href="#DejaVuSans-31" transform="translate(0 0.765625)"/>
       <use xlink:href="#DejaVuSans-30" transform="translate(63.623047 0.765625)"/>
       <use xlink:href="#DejaVuSans-30" transform="translate(128.203125 39.046875)scale(0.7)"/>
      </g>
     </g>
    </g>
    <g id="text_10">
     <!-- Absolute Error -->
     <g style="fill: #657b83" transform="translate(35.004375 186.032813)rotate(-90)scale(0.12 -0.12)">
      <defs>
       <path id="DejaVuSans-41" d="M 2188 4044 
L 1331 1722 
L 3047 1722 
L 2188 4044 
z
M 1831 4666 
L 2547 4666 
L 4325 0 
L 3669 0 
L 3244 1197 
L 1141 1197 
L 716 0 
L 50 0 
L 1831 4666 
z
" transform="scale(0.015625)"/>
       <path id="DejaVuSans-62" d="M 3116 1747 
Q 3116 2381 2855 2742 
Q 2594 3103 2138 3103 
Q 1681 3103 1420 2742 
Q 1159 2381 1159 1747 
Q 1159 1113 1420 752 
Q 1681 391 2138 391 
Q 2594 391 2855 752 
Q 3116 1113 3116 1747 
z
M 1159 2969 
Q 1341 3281 1617 3432 
Q 1894 3584 2278 3584 
Q 2916 3584 3314 3078 
Q 3713 2572 3713 1747 
Q 3713 922 3314 415 
Q 2916 -91 2278 -91 
Q 1894 -91 1617 61 
Q 1341 213 1159 525 
L 1159 0 
L 581 0 
L 581 4863 
L 1159 4863 
L 1159 2969 
z
" transform="scale(0.015625)"/>
       <path id="DejaVuSans-73" d="M 2834 3397 
L 2834 2853 
Q 2591 2978 2328 3040 
Q 2066 3103 1784 3103 
Q 1356 3103 1142 2972 
Q 928 2841 928 2578 
Q 928 2378 1081 2264 
Q 1234 2150 1697 2047 
L 1894 2003 
Q 2506 1872 2764 1633 
Q 3022 1394 3022 966 
Q 3022 478 2636 193 
Q 2250 -91 1575 -91 
Q 1294 -91 989 -36 
Q 684 19 347 128 
L 347 722 
Q 666 556 975 473 
Q 1284 391 1588 391 
Q 1994 391 2212 530 
Q 2431 669 2431 922 
Q 2431 1156 2273 1281 
Q 2116 1406 1581 1522 
L 1381 1569 
Q 847 1681 609 1914 
Q 372 2147 372 2553 
Q 372 3047 722 3315 
Q 1072 3584 1716 3584 
Q 2034 3584 2315 3537 
Q 2597 3491 2834 3397 
z
" transform="scale(0.015625)"/>
       <path id="DejaVuSans-6c" d="M 603 4863 
L 1178 4863 
L 1178 0 
L 603 0 
L 603 4863 
z
" transform="scale(0.015625)"/>
       <path id="DejaVuSans-75" d="M 544 1381 
L 544 3500 
L 1119 3500 
L 1119 1403 
Q 1119 906 1312 657 
Q 1506 409 1894 409 
Q 2359 409 2629 706 
Q 2900 1003 2900 1516 
L 2900 3500 
L 3475 3500 
L 3475 0 
L 2900 0 
L 2900 538 
Q 2691 219 2414 64 
Q 2138 -91 1772 -91 
Q 1169 -91 856 284 
Q 544 659 544 1381 
z
M 1991 3584 
L 1991 3584 
z
" transform="scale(0.015625)"/>
       <path id="DejaVuSans-20" transform="scale(0.015625)"/>
       <path id="DejaVuSans-45" d="M 628 4666 
L 3578 4666 
L 3578 4134 
L 1259 4134 
L 1259 2753 
L 3481 2753 
L 3481 2222 
L 1259 2222 
L 1259 531 
L 3634 531 
L 3634 0 
L 628 0 
L 628 4666 
z
" transform="scale(0.015625)"/>
      </defs>
      <use xlink:href="#DejaVuSans-41"/>
      <use xlink:href="#DejaVuSans-62" x="68.408203"/>
      <use xlink:href="#DejaVuSans-73" x="131.884766"/>
      <use xlink:href="#DejaVuSans-6f" x="183.984375"/>
      <use xlink:href="#DejaVuSans-6c" x="245.166016"/>
      <use xlink:href="#DejaVuSans-75" x="272.949219"/>
      <use xlink:href="#DejaVuSans-74" x="336.328125"/>
      <use xlink:href="#DejaVuSans-65" x="375.537109"/>
      <use xlink:href="#DejaVuSans-20" x="437.060547"/>
      <use xlink:href="#DejaVuSans-45" x="468.847656"/>
      <use xlink:href="#DejaVuSans-72" x="532.03125"/>
      <use xlink:href="#DejaVuSans-72" x="571.394531"/>
      <use xlink:href="#DejaVuSans-6f" x="610.257812"/>
      <use xlink:href="#DejaVuSans-72" x="671.439453"/>
     </g>
    </g>
   </g>
   <g id="line2d_40">
    <path d="M 92.290909 89.284883 
L 137.553897 72.655886 
L 164.031047 81.131171 
L 182.816884 68.064916 
L 197.388311 63.873307 
L 209.294034 61.484242 
L 219.36018 59.865575 
L 228.079872 58.666223 
L 242.651299 56.962317 
L 259.783866 55.30098 
L 277.301688 53.870311 
L 297.040837 52.491475 
L 320.615257 51.081539 
L 347.748701 49.692771 
L 379.25146 48.310777 
L 415.909823 46.931679 
L 458.832034 45.54715 
L 498.109091 44.443636 
L 498.109091 44.443636 
" clip-path="url(#p3571c92cb7)" style="fill: none; stroke: #bfbf00"/>
   </g>
   <g id="line2d_41">
    <path d="M 92.290909 132.262547 
L 137.553897 156.013845 
L 164.031047 135.469965 
L 182.816884 137.42628 
L 197.388311 127.009262 
L 209.294034 124.93302 
L 219.36018 121.27319 
L 228.079872 115.004538 
L 235.771185 115.589674 
L 242.651299 116.765842 
L 254.557022 114.314969 
L 259.783866 117.097755 
L 264.623167 124.628865 
L 269.128449 124.97902 
L 273.342859 132.058299 
L 277.301688 130.041918 
L 281.034172 132.089327 
L 284.564799 133.732482 
L 287.914286 123.160983 
L 291.100318 126.033804 
L 294.138107 121.136164 
L 297.040837 119.746428 
L 299.820009 118.018255 
L 302.485714 117.305885 
L 305.046853 117.036501 
L 307.511323 118.465489 
L 309.886155 120.206074 
L 312.177642 120.17649 
L 314.391437 119.04162 
L 316.532635 117.717289 
L 318.605846 118.515203 
L 320.615257 119.862791 
L 322.564676 123.680076 
L 324.457582 126.216946 
L 326.29716 132.059879 
L 328.086332 132.119361 
L 329.827786 136.912767 
L 331.524004 128.007054 
L 333.177274 131.235069 
L 334.789718 132.272278 
L 336.363305 131.598978 
L 337.899863 129.17336 
L 339.401094 128.159635 
L 340.868587 126.698435 
L 342.303825 137.212548 
L 343.708195 130.833258 
L 345.082997 136.965248 
L 346.42945 128.70939 
L 347.748701 128.553297 
L 349.041826 127.326921 
L 350.309841 121.958475 
L 351.553701 122.611982 
L 352.77431 121.816091 
L 353.972521 124.890249 
L 355.149142 127.109222 
L 356.304937 126.893921 
L 358.556908 122.120276 
L 359.654424 122.705171 
L 360.733799 122.84389 
L 361.795622 121.261963 
L 362.840455 120.914855 
L 363.868834 123.077186 
L 364.881268 122.191719 
L 365.878244 121.165901 
L 368.780975 126.338857 
L 369.72057 135.28999 
L 370.646836 128.54608 
L 371.560147 126.784263 
L 372.460861 127.653811 
L 373.349319 126.295574 
L 374.225851 123.104034 
L 375.090774 123.287442 
L 375.94439 123.23352 
L 376.786991 124.098668 
L 377.618858 126.343528 
L 378.440261 126.497572 
L 379.25146 124.75723 
L 380.052706 128.427638 
L 380.844239 126.076898 
L 381.626293 125.324458 
L 382.399091 129.187636 
L 383.16285 127.265737 
L 383.91778 123.276489 
L 384.664082 121.522267 
L 385.40195 120.811207 
L 386.131575 121.056976 
L 386.853136 119.840272 
L 387.566812 120.364208 
L 388.272772 119.94238 
L 388.971182 119.704318 
L 389.662201 118.779164 
L 391.022681 117.858612 
L 391.692438 117.08445 
L 392.355395 117.822242 
L 393.011689 117.589943 
L 393.661452 116.801536 
L 394.304814 117.78112 
L 394.941899 117.507451 
L 395.572828 118.259723 
L 396.19772 119.37228 
L 396.816688 120.942175 
L 397.429845 121.432987 
L 398.037298 119.363281 
L 398.639151 119.841885 
L 399.235509 119.597382 
L 399.826469 120.369136 
L 400.41213 120.289855 
L 400.992584 122.48828 
L 401.567924 123.62454 
L 402.13824 125.51657 
L 402.703617 121.622198 
L 403.264141 121.133269 
L 403.819895 119.969221 
L 404.370959 119.40637 
L 405.459329 117.388949 
L 405.996786 118.630884 
L 406.529856 118.876508 
L 407.05861 118.89912 
L 407.583116 119.230099 
L 408.103443 118.245689 
L 408.619657 119.132771 
L 409.131821 120.321899 
L 410.144255 118.513312 
L 410.644646 118.995536 
L 411.141232 119.22329 
L 411.63407 119.19742 
L 412.123216 118.404507 
L 412.608725 118.465782 
L 413.090651 121.110531 
L 413.569046 119.775835 
L 414.043963 119.081594 
L 414.51545 120.519935 
L 415.448333 124.821126 
L 415.909823 123.136558 
L 416.368076 124.081719 
L 416.823135 122.871622 
L 417.275044 125.042568 
L 417.723848 125.539226 
L 418.169588 126.873099 
L 418.612307 126.825266 
L 419.052043 124.459715 
L 419.922732 122.183116 
L 420.353761 122.20844 
L 420.781964 121.694398 
L 421.207377 122.663653 
L 421.630037 124.09613 
L 422.049979 123.988512 
L 422.467237 121.451815 
L 422.881846 120.898445 
L 423.293839 120.755356 
L 423.703249 120.299145 
L 424.110108 121.927958 
L 424.514448 121.79373 
L 424.9163 121.329119 
L 425.315693 122.428678 
L 425.712659 121.522697 
L 426.107227 122.216333 
L 426.499424 123.476781 
L 426.88928 123.345146 
L 427.276822 125.755902 
L 427.662078 125.313452 
L 428.045075 125.667471 
L 428.425838 130.103165 
L 428.804393 128.89623 
L 429.180767 126.534155 
L 429.554984 127.761719 
L 429.927069 126.722007 
L 430.297046 128.197441 
L 430.664938 126.590997 
L 431.030769 127.189914 
L 431.394562 131.35338 
L 431.75634 128.145256 
L 432.116124 128.609566 
L 432.473937 131.34738 
L 433.53576 136.302721 
L 433.885899 153.175974 
L 434.23417 144.588477 
L 434.580593 139.068656 
L 434.925189 166.07987 
L 435.267975 166.526217 
L 435.608972 136.081903 
L 435.948197 134.421525 
L 436.285669 142.712265 
L 436.621406 154.506773 
L 436.955425 143.616377 
L 437.287745 207.391755 
L 437.618382 141.673289 
L 437.947354 139.958889 
L 438.274676 133.996987 
L 438.600366 136.976609 
L 438.92444 148.067824 
L 439.246913 142.292584 
L 439.567801 195.078618 
L 439.887121 156.804732 
L 440.204886 138.008598 
L 440.521113 140.963284 
L 440.835816 140.049269 
L 441.149009 143.257371 
L 441.460707 136.853243 
L 441.770925 150.074911 
L 442.079676 141.815724 
L 442.386974 146.499663 
L 442.997265 141.142733 
L 443.300285 140.852463 
L 443.601905 139.634158 
L 443.902139 144.711871 
L 444.200998 141.69338 
L 444.498496 134.883646 
L 444.794645 135.466117 
L 445.089457 137.397942 
L 445.382944 137.060212 
L 445.675117 158.109102 
L 446.255572 138.658722 
L 446.543875 134.883979 
L 446.830912 136.34927 
L 447.116692 132.274317 
L 447.401227 132.782429 
L 447.684528 131.600986 
L 447.966604 133.074469 
L 448.247468 141.30321 
L 448.527129 142.072331 
L 448.805597 146.780075 
L 449.082883 139.020585 
L 449.358996 138.557588 
L 449.633947 136.341441 
L 450.180399 156.772502 
L 450.45192 145.10386 
L 450.722317 153.14717 
L 451.259774 140.21192 
L 451.526853 141.627082 
L 451.792844 140.780455 
L 452.057756 138.418769 
L 452.321597 140.671999 
L 452.584377 157.829055 
L 452.846103 145.053113 
L 453.106785 138.633171 
L 453.36643 147.652743 
L 453.625047 138.74717 
L 454.139229 129.685024 
L 454.394809 135.627639 
L 454.649393 136.794572 
L 454.902988 152.272434 
L 455.155602 151.65184 
L 455.407243 154.330713 
L 455.657918 144.879434 
L 455.907634 144.182365 
L 456.156399 140.094618 
L 456.404219 143.016821 
L 456.651103 150.209612 
L 456.897057 140.108507 
L 457.142088 134.94392 
L 457.386203 137.249121 
L 457.629409 137.592881 
L 457.871712 137.141791 
L 458.11312 139.241707 
L 458.353638 135.480439 
L 458.593274 134.688091 
L 458.832034 140.593615 
L 459.069924 134.923596 
L 459.30695 136.917567 
L 459.543119 145.007891 
L 459.778437 138.568916 
L 460.01291 136.079366 
L 460.246545 138.074028 
L 460.71132 135.363465 
L 460.942473 135.877851 
L 461.172811 135.426598 
L 461.402339 130.781193 
L 461.631063 128.948535 
L 462.086122 131.184202 
L 462.312468 134.406714 
L 462.986836 137.820357 
L 463.210086 134.643567 
L 463.432576 136.357702 
L 463.65431 134.449458 
L 463.875294 134.285305 
L 464.095533 139.658988 
L 464.315031 137.944624 
L 464.533794 144.48043 
L 464.969133 137.763653 
L 465.18572 157.844745 
L 465.616749 136.265175 
L 465.831201 135.064889 
L 466.258005 136.497176 
L 466.470365 135.283902 
L 466.682037 142.37464 
L 466.893024 137.118134 
L 467.312966 133.731482 
L 467.521928 144.442629 
L 467.937858 136.9983 
L 468.144833 134.658992 
L 468.351155 134.110308 
L 468.556826 138.794671 
L 468.966236 133.517325 
L 469.169983 134.055709 
L 469.373095 135.574421 
L 469.777435 143.808837 
L 469.97867 153.379007 
L 470.179287 138.494923 
L 470.379289 154.33956 
L 470.578681 152.762231 
L 470.777465 143.413388 
L 470.975647 144.97767 
L 471.173228 148.547143 
L 471.370214 157.592389 
L 471.566607 152.094391 
L 471.762412 141.392413 
L 471.95763 143.476185 
L 472.152268 139.310218 
L 472.346326 138.13 
L 472.53981 139.634684 
L 472.732722 148.874382 
L 472.925066 140.230437 
L 473.116845 165.953319 
L 473.308062 143.976953 
L 473.498721 142.92481 
L 473.688825 163.15457 
L 473.878377 140.625525 
L 474.067381 143.053235 
L 474.255839 160.674663 
L 474.443755 140.821375 
L 474.631131 150.054058 
L 474.817972 143.935644 
L 475.004279 148.853502 
L 475.190057 157.946801 
L 475.375307 134.676471 
L 475.560033 131.959468 
L 475.744238 133.747607 
L 475.927925 132.522397 
L 476.111097 133.709824 
L 476.293756 138.614658 
L 476.475906 137.768823 
L 476.657549 131.946621 
L 476.838689 135.242795 
L 477.019327 134.87228 
L 477.199467 132.88686 
L 477.379111 142.550496 
L 477.736924 135.305817 
L 477.915098 135.51364 
L 478.446721 130.890146 
L 478.622972 132.526211 
L 478.798747 135.997989 
L 478.974051 135.61014 
L 479.148886 136.466738 
L 479.323254 138.191745 
L 479.670599 128.140509 
L 480.016106 132.074555 
L 480.188176 128.611792 
L 480.359794 129.414102 
L 480.530963 128.853228 
L 480.701684 130.068919 
L 480.871959 129.54515 
L 481.041792 131.368925 
L 481.211184 136.925871 
L 481.380138 146.501419 
L 481.716741 153.409698 
L 481.884393 156.702997 
L 482.051617 142.686646 
L 482.218413 152.432817 
L 482.384784 146.537757 
L 482.550733 145.821293 
L 482.88137 135.376716 
L 483.046063 135.907461 
L 483.210341 134.611851 
L 483.374207 130.356389 
L 483.537664 131.005266 
L 483.700712 133.227014 
L 483.863353 133.746305 
L 484.025591 135.861295 
L 484.187427 133.340898 
L 484.348863 132.780036 
L 484.5099 128.35992 
L 484.670542 127.425859 
L 484.830789 127.933478 
L 484.990644 128.021468 
L 485.150108 125.915561 
L 485.467874 127.413777 
L 485.7841 129.034975 
L 485.941641 128.989354 
L 486.255588 124.78146 
L 487.033912 128.659773 
L 487.18847 128.389217 
L 487.342663 127.562353 
L 487.496493 129.8607 
L 487.649961 126.844857 
L 487.80307 127.176751 
L 488.108214 128.910682 
L 488.260253 128.66262 
L 488.714257 131.363715 
L 489.015182 129.231242 
L 489.314727 126.912269 
L 489.463986 126.797192 
L 489.909726 125.419503 
L 490.205205 125.731762 
L 490.352444 126.225598 
L 490.938105 130.653165 
L 491.518559 127.243626 
L 491.806863 127.606745 
L 492.522102 132.217188 
L 492.664215 131.989399 
L 492.806018 130.709463 
L 492.947515 132.078164 
L 493.088706 138.130237 
L 493.229592 133.809347 
L 493.510456 132.832655 
L 493.650436 134.591169 
L 493.790116 134.933305 
L 493.929499 134.119618 
L 494.068585 135.815306 
L 494.34587 150.594741 
L 494.484073 141.815972 
L 494.621983 150.102931 
L 494.759604 174.804966 
L 494.896934 149.709429 
L 495.033977 152.935284 
L 495.170732 146.867633 
L 495.443387 148.096956 
L 495.714908 168.95831 
L 495.850246 145.580886 
L 496.120084 159.239152 
L 496.254586 139.993571 
L 496.522761 159.755615 
L 496.656437 146.724404 
L 496.78984 147.988079 
L 496.922971 158.834846 
L 497.188421 141.129971 
L 497.320743 138.389904 
L 497.452797 138.417327 
L 497.584585 139.147126 
L 497.716107 133.910058 
L 497.847364 134.039411 
L 498.109091 138.682121 
L 498.109091 138.682121 
" clip-path="url(#p3571c92cb7)" style="fill: none; stroke: #ff0000"/>
   </g>
   <g id="line2d_42">
    <path d="M 92.290909 199.020382 
L 137.553897 210.363317 
L 164.031047 209.998772 
L 182.816884 191.620841 
L 197.388311 187.887275 
L 209.294034 187.764439 
L 219.36018 211.231897 
L 228.079872 200.933133 
L 235.771185 194.369343 
L 242.651299 185.689304 
L 248.875119 186.116699 
L 254.557022 185.689314 
L 259.783866 193.755139 
L 264.623167 190.172649 
L 269.128449 197.185245 
L 273.342859 187.225234 
L 277.301688 185.390743 
L 281.034172 197.301882 
L 284.564799 187.905475 
L 287.914286 195.159333 
L 291.100318 190.46456 
L 294.138107 196.357725 
L 297.040837 186.978551 
L 299.820009 195.021582 
L 302.485714 186.386465 
L 305.046853 185.238159 
L 307.511323 186.402507 
L 309.886155 183.689097 
L 312.177642 184.729634 
L 314.391437 186.449442 
L 316.532635 202.537035 
L 318.605846 185.828945 
L 320.615257 186.042865 
L 322.564676 194.020348 
L 324.457582 211.819578 
L 326.29716 186.519986 
L 328.086332 185.448446 
L 329.827786 185.257519 
L 331.524004 202.707321 
L 333.177274 196.909066 
L 334.789718 200.733389 
L 336.363305 213.186419 
L 337.899863 189.620509 
L 339.401094 195.680074 
L 340.868587 196.992817 
L 342.303825 185.98825 
L 343.708195 193.89185 
L 345.082997 197.16588 
L 346.42945 187.490417 
L 347.748701 186.542717 
L 349.041826 186.968128 
L 350.309841 187.87883 
L 351.553701 203.211588 
L 352.77431 196.731742 
L 353.972521 186.965019 
L 355.149142 190.479584 
L 356.304937 199.581409 
L 357.44063 192.237977 
L 358.556908 185.849156 
L 359.654424 186.457967 
L 360.733799 183.569367 
L 361.795622 187.888162 
L 362.840455 183.273148 
L 363.868834 194.985464 
L 364.881268 192.168912 
L 365.878244 186.874196 
L 366.860228 184.435056 
L 367.827663 198.773804 
L 368.780975 196.686959 
L 369.72057 189.115087 
L 370.646836 184.892075 
L 371.560147 186.370515 
L 372.460861 204.671503 
L 373.349319 187.563233 
L 374.225851 195.081749 
L 375.090774 193.449482 
L 375.94439 188.58611 
L 376.786991 192.339018 
L 377.618858 189.173165 
L 378.440261 186.496436 
L 379.25146 185.981139 
L 380.052706 187.533274 
L 380.844239 190.164795 
L 381.626293 189.237423 
L 382.399091 186.014293 
L 383.16285 183.525878 
L 383.91778 187.945865 
L 384.664082 186.099281 
L 385.40195 193.704714 
L 386.131575 195.323654 
L 386.853136 194.167561 
L 387.566812 195.352836 
L 388.272772 193.40104 
L 388.971182 185.44686 
L 389.662201 187.17576 
L 390.345984 186.58959 
L 391.022681 188.954028 
L 391.692438 200.488357 
L 392.355395 194.301507 
L 393.011689 197.006091 
L 393.661452 205.252219 
L 394.304814 185.926155 
L 394.941899 184.947833 
L 395.572828 202.247466 
L 396.19772 191.492184 
L 396.816688 192.226325 
L 397.429845 189.418838 
L 398.037298 195.578747 
L 398.639151 205.081859 
L 399.826469 192.907605 
L 400.41213 215.017284 
L 400.992584 186.933598 
L 401.567924 187.278572 
L 402.13824 186.36357 
L 402.703617 203.205421 
L 403.264141 188.511402 
L 403.819895 187.046389 
L 404.370959 189.892553 
L 404.917412 196.704085 
L 405.459329 200.082758 
L 405.996786 190.642033 
L 406.529856 194.07642 
L 407.05861 185.169777 
L 407.583116 185.825896 
L 408.103443 191.326591 
L 408.619657 192.365175 
L 409.131821 197.488852 
L 409.640001 210.305193 
L 410.144255 184.749462 
L 410.644646 198.075109 
L 411.141232 198.058644 
L 411.63407 217.583898 
L 412.123216 188.984029 
L 412.608725 186.985596 
L 413.090651 187.075864 
L 413.569046 185.979166 
L 414.043963 186.459363 
L 414.51545 196.832262 
L 414.983557 183.285813 
L 415.448333 201.06649 
L 415.909823 188.270297 
L 416.368076 184.42343 
L 416.823135 196.406651 
L 417.275044 185.199697 
L 417.723848 191.867988 
L 418.169588 185.11329 
L 418.612307 200.694714 
L 419.052043 186.971754 
L 419.488839 185.916777 
L 419.922732 189.722656 
L 420.353761 200.065455 
L 420.781964 196.975232 
L 421.207377 184.678653 
L 421.630037 199.758164 
L 422.049979 184.830311 
L 422.467237 186.968001 
L 422.881846 183.319747 
L 423.293839 188.576731 
L 423.703249 186.34585 
L 424.110108 212.401237 
L 424.514448 186.882636 
L 424.9163 190.133881 
L 425.315693 185.430217 
L 425.712659 185.546962 
L 426.107227 183.824389 
L 426.499424 186.096282 
L 426.88928 183.354869 
L 427.276822 215.268358 
L 427.662078 195.341535 
L 428.045075 194.610362 
L 428.425838 190.714096 
L 428.804393 185.608296 
L 429.180767 185.114746 
L 429.554984 205.665653 
L 429.927069 186.750591 
L 430.297046 193.952253 
L 430.664938 185.401543 
L 431.030769 191.049415 
L 431.394562 186.009937 
L 431.75634 189.71721 
L 432.116124 198.755689 
L 432.473937 189.125682 
L 432.8298 197.074322 
L 433.183734 184.997548 
L 433.53576 200.202575 
L 433.885899 196.488348 
L 434.23417 187.506739 
L 434.580593 188.586193 
L 434.925189 185.718683 
L 435.267975 185.335853 
L 435.608972 186.248725 
L 435.948197 206.735328 
L 436.285669 183.210036 
L 436.621406 206.531817 
L 436.955425 193.273768 
L 437.287745 207.391755 
L 437.618382 185.636924 
L 437.947354 194.454714 
L 438.274676 195.416996 
L 438.600366 190.815184 
L 438.92444 188.44697 
L 439.567801 195.078618 
L 439.887121 198.551769 
L 440.204886 192.592962 
L 440.521113 196.785585 
L 440.835816 192.588854 
L 441.149009 186.09502 
L 441.460707 206.551307 
L 441.770925 186.862895 
L 442.079676 184.790174 
L 442.386974 191.777131 
L 442.692832 183.45446 
L 442.997265 188.938463 
L 443.300285 186.10519 
L 443.902139 191.797923 
L 444.200998 188.816548 
L 444.498496 194.39326 
L 444.794645 185.234647 
L 445.089457 185.082741 
L 445.382944 200.361571 
L 445.675117 189.41863 
L 445.965989 198.74629 
L 446.255572 198.192796 
L 446.543875 194.145987 
L 446.830912 185.62714 
L 447.116692 197.316336 
L 447.401227 186.46641 
L 447.684528 203.422094 
L 447.966604 188.104549 
L 448.247468 188.269069 
L 448.527129 205.642737 
L 448.805597 192.839005 
L 449.082883 198.589524 
L 449.358996 207.031425 
L 449.633947 183.697413 
L 450.180399 195.692786 
L 450.45192 195.349879 
L 450.722317 193.474913 
L 450.991598 194.327602 
L 451.259774 213.428642 
L 451.526853 188.050343 
L 451.792844 198.945777 
L 452.057756 193.998111 
L 452.321597 193.110741 
L 452.584377 220.066714 
L 452.846103 187.042784 
L 453.106785 187.883692 
L 453.36643 207.544508 
L 453.625047 186.875603 
L 453.882644 184.85471 
L 454.139229 186.474082 
L 454.649393 186.992404 
L 454.902988 189.07198 
L 455.155602 200.020205 
L 455.407243 188.456871 
L 455.657918 200.525077 
L 455.907634 194.628422 
L 456.156399 195.231047 
L 456.404219 194.640109 
L 456.651103 206.972941 
L 456.897057 190.385815 
L 457.386203 209.400053 
L 457.629409 188.004114 
L 457.871712 198.359058 
L 458.11312 187.834806 
L 458.353638 185.7952 
L 458.593274 185.912202 
L 459.069924 187.479542 
L 459.30695 186.366007 
L 459.543119 184.498576 
L 459.778437 195.589729 
L 460.01291 185.597606 
L 460.246545 191.248469 
L 460.479346 187.276241 
L 460.71132 193.046811 
L 460.942473 188.696366 
L 461.172811 204.098131 
L 461.631063 188.970129 
L 461.858989 189.721624 
L 462.086122 195.979813 
L 462.312468 193.913112 
L 462.538032 193.175511 
L 462.762819 205.625876 
L 462.986836 184.638469 
L 463.210086 214.541578 
L 463.432576 187.930381 
L 463.65431 185.423575 
L 464.095533 200.002256 
L 464.315031 185.884561 
L 464.533794 192.357419 
L 464.751826 186.935381 
L 465.18572 222.299122 
L 465.40159 192.406356 
L 465.831201 183.239402 
L 466.044952 186.576166 
L 466.258005 192.09625 
L 466.470365 191.956004 
L 466.682037 187.762722 
L 466.893024 187.361896 
L 467.103333 192.351135 
L 467.312966 188.33108 
L 467.521928 210.670059 
L 467.730224 185.886867 
L 467.937858 184.742631 
L 468.144833 191.162305 
L 468.351155 189.678946 
L 468.556826 206.028681 
L 468.761852 194.060759 
L 468.966236 196.259287 
L 469.169983 209.174819 
L 469.373095 189.256288 
L 469.575578 185.201891 
L 469.777435 197.984996 
L 470.179287 183.823043 
L 470.578681 193.740548 
L 470.777465 193.351694 
L 470.975647 187.366393 
L 471.173228 187.970301 
L 471.370214 190.056789 
L 471.566607 203.391571 
L 471.95763 184.078078 
L 472.152268 191.076797 
L 472.346326 188.820081 
L 472.53981 189.446238 
L 472.732722 185.609619 
L 472.925066 197.139604 
L 473.116845 186.931149 
L 473.308062 198.122341 
L 473.498721 187.466655 
L 473.688825 212.703575 
L 474.067381 187.290888 
L 474.255839 185.016271 
L 474.443755 192.962988 
L 474.631131 185.689651 
L 474.817972 188.52606 
L 475.004279 184.441397 
L 475.190057 197.533232 
L 475.375307 184.725117 
L 475.560033 185.514832 
L 475.744238 184.520273 
L 475.927925 187.546153 
L 476.111097 214.855341 
L 476.293756 184.266268 
L 476.475906 210.74689 
L 476.657549 186.828519 
L 476.838689 188.206566 
L 477.019327 221.916079 
L 477.199467 187.818937 
L 477.379111 187.102163 
L 477.558263 208.970738 
L 477.736924 183.310966 
L 477.915098 242.116364 
L 478.092787 186.610711 
L 478.269994 185.864466 
L 478.446721 188.085916 
L 478.622972 185.953356 
L 478.798747 187.475458 
L 478.974051 194.436396 
L 479.148886 195.91704 
L 479.323254 193.981781 
L 479.497157 200.331414 
L 479.670599 186.070683 
L 479.843581 184.658668 
L 480.016106 186.473831 
L 480.359794 205.356178 
L 480.530963 187.628872 
L 480.701684 215.291477 
L 481.041792 188.037579 
L 481.211184 188.679138 
L 481.380138 191.510068 
L 481.548656 191.424088 
L 481.716741 189.458177 
L 481.884393 191.520202 
L 482.051617 185.903894 
L 482.218413 185.24496 
L 482.550733 188.764808 
L 482.71626 188.590881 
L 483.046063 186.541979 
L 483.210341 185.709762 
L 483.374207 190.034387 
L 483.537664 186.061381 
L 483.700712 188.256828 
L 483.863353 184.156923 
L 484.025591 198.374491 
L 484.187427 184.748849 
L 484.348863 185.570493 
L 484.5099 184.39737 
L 484.670542 188.576994 
L 484.830789 197.482169 
L 484.990644 187.314301 
L 485.150108 187.048062 
L 485.467874 202.323007 
L 485.626178 202.585561 
L 486.098803 184.959186 
L 486.255588 186.865978 
L 486.568032 199.768716 
L 486.878988 184.354126 
L 487.342663 188.384044 
L 487.649961 184.603263 
L 487.80307 193.148111 
L 487.95582 190.83926 
L 488.108214 190.845878 
L 488.260253 183.214269 
L 488.411938 187.677932 
L 488.714257 185.554279 
L 488.864893 213.074233 
L 489.015182 187.442433 
L 489.165126 184.612887 
L 489.314727 187.309817 
L 489.463986 207.794287 
L 489.612904 187.669654 
L 489.761484 185.687886 
L 489.909726 192.318862 
L 490.057633 187.758614 
L 490.205205 194.377432 
L 490.352444 187.963753 
L 490.499353 192.77451 
L 490.645931 187.51694 
L 490.792181 197.163627 
L 490.938105 183.465403 
L 491.083703 183.151403 
L 491.228977 194.222137 
L 491.373928 186.632234 
L 491.518559 194.574122 
L 491.66287 183.75449 
L 491.806863 185.593655 
L 491.950539 195.260327 
L 492.093899 194.232853 
L 492.236946 187.064456 
L 492.379679 186.688994 
L 492.522102 196.401183 
L 492.664215 196.609142 
L 492.806018 186.747694 
L 493.088706 188.753365 
L 493.229592 184.981418 
L 493.370175 194.396382 
L 493.510456 184.866946 
L 493.929499 195.959089 
L 494.068585 185.066821 
L 494.207375 197.156726 
L 494.34587 194.319786 
L 494.484073 184.760619 
L 494.621983 188.72217 
L 494.759604 186.717685 
L 494.896934 190.307563 
L 495.033977 184.407695 
L 495.170732 184.137789 
L 495.307202 191.62835 
L 495.443387 186.160306 
L 495.579288 189.881777 
L 495.714908 186.040196 
L 495.850246 191.271115 
L 495.985304 185.329419 
L 496.120084 188.400091 
L 496.254586 185.664163 
L 496.388811 189.439633 
L 496.522761 189.339629 
L 496.656437 220.255268 
L 496.78984 202.828882 
L 496.922971 203.690567 
L 497.055831 187.158612 
L 497.188421 192.022799 
L 497.320743 185.537307 
L 497.584585 200.960767 
L 497.716107 197.74566 
L 497.978359 183.301384 
L 498.109091 198.522175 
L 498.109091 198.522175 
" clip-path="url(#p3571c92cb7)" style="fill: none; stroke: #268bd2"/>
   </g>
   <g id="patch_3">
    <path d="M 72 252 
L 72 34.56 
" style="fill: none; stroke: #eee8d5; stroke-width: 0.8; stroke-linejoin: miter; stroke-linecap: square"/>
   </g>
   <g id="patch_4">
    <path d="M 518.4 252 
L 518.4 34.56 
" style="fill: none; stroke: #eee8d5; stroke-width: 0.8; stroke-linejoin: miter; stroke-linecap: square"/>
   </g>
   <g id="patch_5">
    <path d="M 72 252 
L 518.4 252 
" style="fill: none; stroke: #eee8d5; stroke-width: 0.8; stroke-linejoin: miter; stroke-linecap: square"/>
   </g>
   <g id="patch_6">
    <path d="M 72 34.56 
L 518.4 34.56 
" style="fill: none; stroke: #eee8d5; stroke-width: 0.8; stroke-linejoin: miter; stroke-linecap: square"/>
   </g>
   <g id="legend_1">
    <g id="patch_7">
     <path d="M 317.04375 108.088388 
L 496.55625 108.088388 
Q 498.55625 108.088388 498.55625 106.088388 
L 498.55625 63.054012 
Q 498.55625 61.054012 496.55625 61.054012 
L 317.04375 61.054012 
Q 315.04375 61.054012 315.04375 63.054012 
L 315.04375 106.088388 
Q 315.04375 108.088388 317.04375 108.088388 
z
" style="fill: #eee8d5; opacity: 0.8; stroke: #cccccc; stroke-linejoin: miter"/>
    </g>
    <g id="line2d_43">
     <path d="M 319.04375 69.15245 
L 329.04375 69.15245 
L 339.04375 69.15245 
" style="fill: none; stroke: #bfbf00"/>
    </g>
    <g id="text_11">
     <!-- recursive round-to-nearest -->
     <g transform="translate(347.04375 72.65245)scale(0.1 -0.1)">
      <defs>
       <path id="DejaVuSans-63" d="M 3122 3366 
L 3122 2828 
Q 2878 2963 2633 3030 
Q 2388 3097 2138 3097 
Q 1578 3097 1268 2742 
Q 959 2388 959 1747 
Q 959 1106 1268 751 
Q 1578 397 2138 397 
Q 2388 397 2633 464 
Q 2878 531 3122 666 
L 3122 134 
Q 2881 22 2623 -34 
Q 2366 -91 2075 -91 
Q 1284 -91 818 406 
Q 353 903 353 1747 
Q 353 2603 823 3093 
Q 1294 3584 2113 3584 
Q 2378 3584 2631 3529 
Q 2884 3475 3122 3366 
z
" transform="scale(0.015625)"/>
       <path id="DejaVuSans-76" d="M 191 3500 
L 800 3500 
L 1894 563 
L 2988 3500 
L 3597 3500 
L 2284 0 
L 1503 0 
L 191 3500 
z
" transform="scale(0.015625)"/>
       <path id="DejaVuSans-64" d="M 2906 2969 
L 2906 4863 
L 3481 4863 
L 3481 0 
L 2906 0 
L 2906 525 
Q 2725 213 2448 61 
Q 2172 -91 1784 -91 
Q 1150 -91 751 415 
Q 353 922 353 1747 
Q 353 2572 751 3078 
Q 1150 3584 1784 3584 
Q 2172 3584 2448 3432 
Q 2725 3281 2906 2969 
z
M 947 1747 
Q 947 1113 1208 752 
Q 1469 391 1925 391 
Q 2381 391 2643 752 
Q 2906 1113 2906 1747 
Q 2906 2381 2643 2742 
Q 2381 3103 1925 3103 
Q 1469 3103 1208 2742 
Q 947 2381 947 1747 
z
" transform="scale(0.015625)"/>
       <path id="DejaVuSans-2d" d="M 313 2009 
L 1997 2009 
L 1997 1497 
L 313 1497 
L 313 2009 
z
" transform="scale(0.015625)"/>
      </defs>
      <use xlink:href="#DejaVuSans-72"/>
      <use xlink:href="#DejaVuSans-65" x="38.863281"/>
      <use xlink:href="#DejaVuSans-63" x="100.386719"/>
      <use xlink:href="#DejaVuSans-75" x="155.367188"/>
      <use xlink:href="#DejaVuSans-72" x="218.746094"/>
      <use xlink:href="#DejaVuSans-73" x="259.859375"/>
      <use xlink:href="#DejaVuSans-69" x="311.958984"/>
      <use xlink:href="#DejaVuSans-76" x="339.742188"/>
      <use xlink:href="#DejaVuSans-65" x="398.921875"/>
      <use xlink:href="#DejaVuSans-20" x="460.445312"/>
      <use xlink:href="#DejaVuSans-72" x="492.232422"/>
      <use xlink:href="#DejaVuSans-6f" x="531.095703"/>
      <use xlink:href="#DejaVuSans-75" x="592.277344"/>
      <use xlink:href="#DejaVuSans-6e" x="655.65625"/>
      <use xlink:href="#DejaVuSans-64" x="719.035156"/>
      <use xlink:href="#DejaVuSans-2d" x="782.511719"/>
      <use xlink:href="#DejaVuSans-74" x="818.595703"/>
      <use xlink:href="#DejaVuSans-6f" x="857.804688"/>
      <use xlink:href="#DejaVuSans-2d" x="920.861328"/>
      <use xlink:href="#DejaVuSans-6e" x="956.945312"/>
      <use xlink:href="#DejaVuSans-65" x="1020.324219"/>
      <use xlink:href="#DejaVuSans-61" x="1081.847656"/>
      <use xlink:href="#DejaVuSans-72" x="1143.126953"/>
      <use xlink:href="#DejaVuSans-65" x="1181.990234"/>
      <use xlink:href="#DejaVuSans-73" x="1243.513672"/>
      <use xlink:href="#DejaVuSans-74" x="1295.613281"/>
     </g>
    </g>
    <g id="line2d_44">
     <path d="M 319.04375 83.830575 
L 329.04375 83.830575 
L 339.04375 83.830575 
" style="fill: none; stroke: #ff0000"/>
    </g>
    <g id="text_12">
     <!-- recursive stochastic rounding -->
     <g transform="translate(347.04375 87.330575)scale(0.1 -0.1)">
      <defs>
       <path id="DejaVuSans-68" d="M 3513 2113 
L 3513 0 
L 2938 0 
L 2938 2094 
Q 2938 2591 2744 2837 
Q 2550 3084 2163 3084 
Q 1697 3084 1428 2787 
Q 1159 2491 1159 1978 
L 1159 0 
L 581 0 
L 581 4863 
L 1159 4863 
L 1159 2956 
Q 1366 3272 1645 3428 
Q 1925 3584 2291 3584 
Q 2894 3584 3203 3211 
Q 3513 2838 3513 2113 
z
" transform="scale(0.015625)"/>
       <path id="DejaVuSans-67" d="M 2906 1791 
Q 2906 2416 2648 2759 
Q 2391 3103 1925 3103 
Q 1463 3103 1205 2759 
Q 947 2416 947 1791 
Q 947 1169 1205 825 
Q 1463 481 1925 481 
Q 2391 481 2648 825 
Q 2906 1169 2906 1791 
z
M 3481 434 
Q 3481 -459 3084 -895 
Q 2688 -1331 1869 -1331 
Q 1566 -1331 1297 -1286 
Q 1028 -1241 775 -1147 
L 775 -588 
Q 1028 -725 1275 -790 
Q 1522 -856 1778 -856 
Q 2344 -856 2625 -561 
Q 2906 -266 2906 331 
L 2906 616 
Q 2728 306 2450 153 
Q 2172 0 1784 0 
Q 1141 0 747 490 
Q 353 981 353 1791 
Q 353 2603 747 3093 
Q 1141 3584 1784 3584 
Q 2172 3584 2450 3431 
Q 2728 3278 2906 2969 
L 2906 3500 
L 3481 3500 
L 3481 434 
z
" transform="scale(0.015625)"/>
      </defs>
      <use xlink:href="#DejaVuSans-72"/>
      <use xlink:href="#DejaVuSans-65" x="38.863281"/>
      <use xlink:href="#DejaVuSans-63" x="100.386719"/>
      <use xlink:href="#DejaVuSans-75" x="155.367188"/>
      <use xlink:href="#DejaVuSans-72" x="218.746094"/>
      <use xlink:href="#DejaVuSans-73" x="259.859375"/>
      <use xlink:href="#DejaVuSans-69" x="311.958984"/>
      <use xlink:href="#DejaVuSans-76" x="339.742188"/>
      <use xlink:href="#DejaVuSans-65" x="398.921875"/>
      <use xlink:href="#DejaVuSans-20" x="460.445312"/>
      <use xlink:href="#DejaVuSans-73" x="492.232422"/>
      <use xlink:href="#DejaVuSans-74" x="544.332031"/>
      <use xlink:href="#DejaVuSans-6f" x="583.541016"/>
      <use xlink:href="#DejaVuSans-63" x="644.722656"/>
      <use xlink:href="#DejaVuSans-68" x="699.703125"/>
      <use xlink:href="#DejaVuSans-61" x="763.082031"/>
      <use xlink:href="#DejaVuSans-73" x="824.361328"/>
      <use xlink:href="#DejaVuSans-74" x="876.460938"/>
      <use xlink:href="#DejaVuSans-69" x="915.669922"/>
      <use xlink:href="#DejaVuSans-63" x="943.453125"/>
      <use xlink:href="#DejaVuSans-20" x="998.433594"/>
      <use xlink:href="#DejaVuSans-72" x="1030.220703"/>
      <use xlink:href="#DejaVuSans-6f" x="1069.083984"/>
      <use xlink:href="#DejaVuSans-75" x="1130.265625"/>
      <use xlink:href="#DejaVuSans-6e" x="1193.644531"/>
      <use xlink:href="#DejaVuSans-64" x="1257.023438"/>
      <use xlink:href="#DejaVuSans-69" x="1320.5"/>
      <use xlink:href="#DejaVuSans-6e" x="1348.283203"/>
      <use xlink:href="#DejaVuSans-67" x="1411.662109"/>
     </g>
    </g>
    <g id="line2d_45">
     <path d="M 319.04375 98.5087 
L 329.04375 98.5087 
L 339.04375 98.5087 
" style="fill: none; stroke: #268bd2"/>
    </g>
    <g id="text_13">
     <!-- compensated summation -->
     <g transform="translate(347.04375 102.0087)scale(0.1 -0.1)">
      <defs>
       <path id="DejaVuSans-6d" d="M 3328 2828 
Q 3544 3216 3844 3400 
Q 4144 3584 4550 3584 
Q 5097 3584 5394 3201 
Q 5691 2819 5691 2113 
L 5691 0 
L 5113 0 
L 5113 2094 
Q 5113 2597 4934 2840 
Q 4756 3084 4391 3084 
Q 3944 3084 3684 2787 
Q 3425 2491 3425 1978 
L 3425 0 
L 2847 0 
L 2847 2094 
Q 2847 2600 2669 2842 
Q 2491 3084 2119 3084 
Q 1678 3084 1418 2786 
Q 1159 2488 1159 1978 
L 1159 0 
L 581 0 
L 581 3500 
L 1159 3500 
L 1159 2956 
Q 1356 3278 1631 3431 
Q 1906 3584 2284 3584 
Q 2666 3584 2933 3390 
Q 3200 3197 3328 2828 
z
" transform="scale(0.015625)"/>
       <path id="DejaVuSans-70" d="M 1159 525 
L 1159 -1331 
L 581 -1331 
L 581 3500 
L 1159 3500 
L 1159 2969 
Q 1341 3281 1617 3432 
Q 1894 3584 2278 3584 
Q 2916 3584 3314 3078 
Q 3713 2572 3713 1747 
Q 3713 922 3314 415 
Q 2916 -91 2278 -91 
Q 1894 -91 1617 61 
Q 1341 213 1159 525 
z
M 3116 1747 
Q 3116 2381 2855 2742 
Q 2594 3103 2138 3103 
Q 1681 3103 1420 2742 
Q 1159 2381 1159 1747 
Q 1159 1113 1420 752 
Q 1681 391 2138 391 
Q 2594 391 2855 752 
Q 3116 1113 3116 1747 
z
" transform="scale(0.015625)"/>
      </defs>
      <use xlink:href="#DejaVuSans-63"/>
      <use xlink:href="#DejaVuSans-6f" x="54.980469"/>
      <use xlink:href="#DejaVuSans-6d" x="116.162109"/>
      <use xlink:href="#DejaVuSans-70" x="213.574219"/>
      <use xlink:href="#DejaVuSans-65" x="277.050781"/>
      <use xlink:href="#DejaVuSans-6e" x="338.574219"/>
      <use xlink:href="#DejaVuSans-73" x="401.953125"/>
      <use xlink:href="#DejaVuSans-61" x="454.052734"/>
      <use xlink:href="#DejaVuSans-74" x="515.332031"/>
      <use xlink:href="#DejaVuSans-65" x="554.541016"/>
      <use xlink:href="#DejaVuSans-64" x="616.064453"/>
      <use xlink:href="#DejaVuSans-20" x="679.541016"/>
      <use xlink:href="#DejaVuSans-73" x="711.328125"/>
      <use xlink:href="#DejaVuSans-75" x="763.427734"/>
      <use xlink:href="#DejaVuSans-6d" x="826.806641"/>
      <use xlink:href="#DejaVuSans-6d" x="924.21875"/>
      <use xlink:href="#DejaVuSans-61" x="1021.630859"/>
      <use xlink:href="#DejaVuSans-74" x="1082.910156"/>
      <use xlink:href="#DejaVuSans-69" x="1122.119141"/>
      <use xlink:href="#DejaVuSans-6f" x="1149.902344"/>
      <use xlink:href="#DejaVuSans-6e" x="1211.083984"/>
     </g>
    </g>
   </g>
  </g>
 </g>
 <defs>
  <clipPath id="p3571c92cb7">
   <rect x="72" y="34.56" width="446.4" height="217.44"/>
  </clipPath>
 </defs>
</svg>
